<svg viewBoxSize="575" data-root-id="6078873701393" xmlns="http://www.w3.org/2000/svg" xmlns:xlink="http://www.w3.org/1999/xlink" version="1.1" id="Layer_1" x="0" y="0" viewBox="103.93727111816406 126.67965698242188 418.0255126953125 453.0549011230469" xml:space="preserve" height="162" width="149.47443237304688" preserveAspectRatio="xMinYMin" zoom="1" editorType="buyer" data-layer-role="icon" style="position: absolute; height: 162px; width: 149.474px; top: 0px; left: 0px;"><linearGradient id="SVGID_1_" gradientUnits="userSpaceOnUse" x1="307.0931" y1="622.6222" x2="315.7101" y2="263.5797" gradientTransform="matrix(1 0 0 -1 0 841.8898)" name="Layer %{number}" zoom="1" data-layer-id="3399638301393"><stop offset="0" style="stop-color: rgb(240, 221, 146);"></stop><stop offset="1" style="stop-color: rgb(184, 135, 40);"></stop></linearGradient><path class="st0" d="M264,189.2c-6.1-7.1-7-10.3-5.6-18.8c0.5-2.9,0.8-5.4,0.7-5.7c-0.4-1.5,2-0.1,4.6,2.7  c5.1,5.5,6.9,11.7,5.5,18.8c-0.4,2-0.8,4.3-0.9,5.1s-0.3,1.5-0.5,1.7C267.6,193.1,265.9,191.4,264,189.2z M303.7,206.8  c-1.7-2.9-3.2-9.1-3.4-13.9c-0.1-2.5,0.1-4.6,0.3-4.6c0.3,0,0.5-0.9,0.5-2.1c-0.1-5.1,5.2-13.8,11.2-18.5c1.3-1,3.8-3.3,5.5-5  s3.2-3,3.3-2.8c0.7,0.8,1.7,9,1.7,14.5c0.1,6.9-0.7,10.8-3.2,15.6c-1.9,3.7-5.1,8.4-5.8,8.4c-0.3,0-0.6,0.4-0.6,0.9  c0,1.3-5.6,8-6.7,8c-0.5,0-0.9,0.3-0.9,0.6C305.7,209.1,304.7,208.5,303.7,206.8z M383.9,208.1c0.4-1.8,0.8-2.7,3.5-7.8  c5.7-11.1,15.3-16.4,29.5-16.4c2.6,0,4,0.3,4.2,0.8c0.2,0.4-0.4,2.2-1.3,3.9c-5,10-9.9,13.2-25.8,16.5c-3.4,0.7-6,1.7-7.8,3  l-2.7,1.9L383.9,208.1z M218.7,211c-0.2-0.4-0.3-0.8-0.1-1s0.5,0.1,0.7,0.7C219.7,211.8,219.3,212,218.7,211z M258.8,212.1  c-0.9-0.8-3-2.3-4.6-3.5c-5.5-4-8.6-10.4-8.6-18.1v-3.7l2.6,1.5c1.4,0.8,4.1,2.8,5.9,4.4c3.9,3.6,5.8,8.4,6.2,15.9  c0.1,2.7,0.2,4.9,0.2,4.9C260.5,213.6,259.7,212.9,258.8,212.1z M231.1,214.9c-0.9-0.6-1.4-1.3-1.2-1.5s1,0.2,1.9,0.9  c0.9,0.6,1.4,1.3,1.2,1.5C232.8,215.9,231.9,215.5,231.1,214.9z M340.4,213.9c-0.6-7.5-0.1-16.3,1.1-18.9c1.8-4.2,4.7-7.6,9.1-11.1  c2.3-1.8,4.8-4,5.6-4.9c0.8-0.9,1.6-1.5,1.7-1.3c0.6,0.6,1.2,8.3,1.1,12.9c-0.2,6.3-2.4,10.6-9,17.7c-2.9,3.1-5.7,5.9-6.3,6.2  c-0.6,0.3-1.5,1.1-2.1,1.9C340.7,217.6,340.6,217.5,340.4,213.9z M296.4,219.3c-4.4-2.2-10.1-7.7-11.7-11.4s-2.6-18.4-1.3-18.4  c1.5,0,6,2.6,7.9,4.6c3.7,3.9,5.4,8.4,7.2,18.4c1,5.6,0.9,6.9-0.5,5.5c-0.9-0.9-1.8-1-1.8-0.1c0,0.4,0.2,0.5,0.5,0.4  c0.6-0.3,3.8,1.9,3.3,2.3C299.9,220.9,298.2,220.2,296.4,219.3z M230.6,227.3c-4.1-4.4-8.4-10-10.3-13.7c-1.1-2.2-0.1-1,3.8,4.4  c1.9,2.6,5.2,6.8,7.4,9.3s3.9,4.6,3.8,4.6C235.2,231.9,233,229.8,230.6,227.3z M241.4,230.1c-4.9-4.1-10.6-10.1-14.8-15.6  c-3.7-4.8-8.2-13-8.1-14.7c0-0.6,0.4-0.1,0.9,1.2c2.4,6.6,7.1,12.8,17.9,23.9c4.5,4.6,8.1,8.4,8,8.4  C245.1,233.2,243.4,231.8,241.4,230.1z M246.6,233.8c-0.2-0.4,0-0.5,0.6-0.2c1.1,0.4,1.3,0.9,0.4,0.9  C247.2,234.5,246.8,234.2,246.6,233.8z M228.5,233.3c-8.1-5.7-16.2-15.2-21.9-25.3c-1.2-2.2-2.1-4.1-2-4.3c0.2-0.2,1.1,1.1,2,2.9  c4.1,7.5,15.7,20.9,23.8,27.4C234.3,237.1,233.5,236.8,228.5,233.3z M319.7,241.3c-0.3-0.9-1-1.7-1.5-1.9s-1.9-2.2-3-4.5  c-1.9-3.9-2-4.5-1.8-9.4c0.2-3.7,0.7-6,1.7-7.8c1.6-3,5.7-7.6,6.2-7.1c0.9,0.9,4,11.1,4,13c0,1.1-0.6,4.1-1.3,6.6  c-0.7,2.5-1.7,6.3-2.3,8.4C320.6,243.1,320.5,243.3,319.7,241.3z M439.1,242c-0.5-4.8,0.4-11.2,2-14.5c2.4-5,4.8-7.3,10.9-10.4  c3.1-1.6,5.9-2.9,6-2.9c0.8,0-0.7,11.9-1.8,14.5c-1.5,3.3-5.9,8.1-10.3,11.3c-1.8,1.3-4,3-4.9,3.8l-1.7,1.5L439.1,242z M183.1,244.9  c-0.8-0.5-1.4-1.4-1.4-1.9s-0.3-0.8-0.6-0.6c-2,1.2-9.3-5.9-11.9-11.6c-1.3-2.9-1.7-4.6-1.7-8.4c0-7.1,0.5-16.4,0.9-16.4  c0.9,0,6.6,4,8.3,5.9c5.4,5.8,6.8,10.1,7.5,22.3c0.3,5.2,0.7,10,0.9,10.6C185.8,246.1,185,246.2,183.1,244.9L183.1,244.9z   M348.5,245.9c6.7-9.3,13-14.9,22.1-19.3c7.8-3.8,14-5.1,23.1-4.8l3.5,0.1l-4.6,0.8c-13,2.4-29,10.4-40.4,20.3  C349.8,245.1,348.1,246.4,348.5,245.9z M393.2,249.8c0.6-0.2,1.6-0.2,2.2,0s0.1,0.3-1.1,0.3S392.6,250,393.2,249.8z M422.4,250.5  c0.2-0.6-0.2-1.9-0.8-3c-3.8-6.2-5-16.7-2.6-22.9c2.4-6.3,2.9-7.3,3.5-7.2c0.9,0,4.6,5.2,6.2,8.7c1.6,3.6,1.7,10.8,0.2,13.7  c-0.5,1-1,2.2-1,2.6c0,0.4-0.7,1.6-1.5,2.7c-0.8,1.1-1.7,3-1.9,4.2c-0.3,1.4-0.8,2.2-1.4,2.2C422.3,251.5,422.1,251.2,422.4,250.5z   M213.2,261.9c-0.2-0.2-1.2-0.5-2.3-0.6c-7.3-0.9-16.6-9.3-19.4-17.6c-1.1-3.3-2.1-10.6-1.5-10.6c0.3,0,2.8,0.9,5.7,2  c5.8,2.2,10.2,5.8,12.9,10.3c0.8,1.4,2.2,5.2,3,8.3c0.8,3.2,1.9,6.4,2.3,7.1C214.6,262.2,214.1,262.8,213.2,261.9z M444.8,262.1  c0.7-1.1,2.2-3.6,3.3-5.4c6.8-11.4,17.2-16,30.5-13.3c3.8,0.8,4.5,1.5,2.4,2.1c-0.7,0.2-1.8,1.3-2.5,2.5c-1.6,2.5-7.8,8.5-10.8,10.3  c-3.4,2.1-11.2,4.4-17.4,5.2c-3.1,0.4-5.9,0.7-6.2,0.7C443.8,264.2,444.1,263.3,444.8,262.1z M178.9,274.5  c-5.8-1.2-10.6-3.7-15.6-8.2c-1.3-1.1-2.9-2.2-3.7-2.5c-1.9-0.6-1.4-1.6,1.9-3.4c2.5-1.4,3.4-1.5,9.1-1.3c8.1,0.3,10,1.3,17.5,8.8  c3.1,3.1,5.6,5.8,5.5,5.9C193.3,274.3,180.3,274.8,178.9,274.5z M334.9,284.8c1.7-3,10.7-12.1,16-16.2c5.5-4.2,15.9-10.3,20.2-11.9  c2.1-0.8,3.5-1.1,3.2-0.8s-2,1.1-3.6,1.7c-3.5,1.3-12.2,6.7-18.7,11.5c-5,3.7-11.7,10.2-15.9,15.1  C333.6,287.2,333.6,287.2,334.9,284.8z M492.5,289.7c0.6-0.2,1.6-0.2,2.2,0s0.1,0.3-1.1,0.3S491.9,289.9,492.5,289.7z M486.7,289.4  c0-0.3,0.7-0.5,1.6-0.5s1.6,0.1,1.6,0.2s-0.7,0.4-1.6,0.5C487.4,289.8,486.7,289.7,486.7,289.4z M472.7,291.4  c0.5-0.3,1.4-0.6,1.9-0.6c0.8,0,0.8,0.1,0,0.6c-0.5,0.3-1.4,0.6-1.9,0.6C471.9,292,471.9,291.9,472.7,291.4z M468.6,292.7  c0.7-0.3,1.7-0.5,2.2-0.5c0.6,0,0.5,0.2-0.3,0.5c-0.7,0.3-1.7,0.5-2.2,0.5C467.7,293.2,467.8,293,468.6,292.7z M489.2,299l-6.6-0.4  l6.3-0.1c3.5,0,7,0.2,7.9,0.4C498.6,299.6,499.1,299.6,489.2,299L489.2,299z M216.5,302.1c0-0.3,0.6-0.6,1.3-0.6s1.3,0.1,1.3,0.2  s-0.6,0.4-1.3,0.6C217.1,302.5,216.5,302.4,216.5,302.1z M213.5,302.3c0.6-0.2,1.5-0.1,1.9,0c0.4,0.2-0.1,0.3-1.1,0.3  C213.3,302.7,212.9,302.5,213.5,302.3L213.5,302.3z M473.3,303c0.5-0.2,1-0.2,1.2,0.1c0.2,0.2-0.2,0.4-0.8,0.3  C472.9,303.3,472.8,303.2,473.3,303L473.3,303z M209.1,303c0.6-0.2,1.6-0.2,2.2,0c0.6,0.2,0.1,0.3-1.1,0.3  C209,303.3,208.5,303.1,209.1,303z M197.1,303.6c2-0.1,5.1-0.1,7,0c1.8,0.1,0.2,0.2-3.7,0.2C196.6,303.8,195.1,303.7,197.1,303.6z   M320,303.9c0.4-0.8,9.9-15.3,14.7-22.6c3.2-4.9,12.9-14.8,18.5-19c6.2-4.6,16.7-10,22.4-11.5c5.6-1.4,13.3-2.2,13.8-1.3  c0.2,0.4-1.2,0.8-3.7,1c-13.6,1.4-33.1,12.5-46,26.2c-2.3,2.5-4.7,5.4-5.3,6.6c-0.6,1.1-2.4,3.9-4,6.2c-1.6,2.3-4.6,6.6-6.6,9.6  s-3.8,5.5-4,5.5C319.7,304.7,319.8,304.3,320,303.9z M491.7,307.2c-1.2-0.3-5.3-0.7-9.2-1c-3.8-0.2-7.7-0.5-8.5-0.6  c-0.9-0.1-2.5-0.2-3.6-0.2s-2.1-0.3-2.1-0.5c0-0.6,18.6,0.2,22.1,1c1.6,0.4,3.8,0.8,5,1s2.3,0.5,2.5,0.7  C498.4,308,494.1,307.8,491.7,307.2z M337.4,308.7c0-0.3,1.2-2.3,2.8-4.4c6-8.3,15.1-13.4,27.4-15.4c4.1-0.7,10.3-1.4,13.8-1.6  c8-0.5,14.4-2.2,21.6-5.7c5.3-2.6,13.1-8.5,16.5-12.5c3.9-4.5,7.5-11.1,8.5-14.9l0.6-2.4l0.1,2.4c0,1.3-0.7,4.3-1.5,6.6  c-6.9,18.5-24.1,30.4-47.4,32.8c-7.3,0.7-17.1,2.3-20.3,3.2c-3.6,1-12.2,5.3-15.1,7.5c-1,0.8-3,2.2-4.3,3.2  C338.4,308.5,337.4,309,337.4,308.7z M480.5,313.7c1-0.1,2.4-0.1,3.2,0c0.8,0.2,0,0.3-1.8,0.3C480.2,314,479.5,313.9,480.5,313.7z   M144.6,314.8c-0.8-0.3-1.8-0.4-2.3-0.2c-1.5,0.6-9.1-2.9-12.1-5.6c-3.2-2.8-5.7-7.1-6.3-10.8c-0.2-1.3-0.5-3.3-0.7-4.5l-0.3-2.2  l3.7,1.1c8.7,2.6,13.2,6.7,15.7,14.3c0.6,1.7,1.8,4.2,2.6,5.6C146.7,315.1,146.6,315.5,144.6,314.8z M423.1,317.7  c1.7-0.4,6.4-1.8,10.4-3c12.1-3.7,22.7-6.1,30-6.8c15-1.4,24.8-0.6,34.3,2.9c4.9,1.8,8.1,4,3.5,2.5c-5.8-2-15.1-3.1-26.8-3.1  c-6.4,0-13.3,0.2-15.2,0.4c-3.9,0.5-23.6,4.9-31,6.8c-2.6,0.7-5.6,1.2-6.6,1.2C420.2,318.5,420.4,318.3,423.1,317.7z M417.5,318.8  c0.4-0.2,1.1-0.2,1.6,0c0.4,0.2,0.1,0.3-0.8,0.3S417.1,319,417.5,318.8z M480.2,289.8c-0.2-0.2-0.8-0.2-1.2-0.1  c-0.5,0.2-0.4,0.4,0.4,0.4C480,290.1,480.4,290,480.2,289.8L480.2,289.8z M415.3,311.9c-0.4-0.2-1.1-0.2-1.6,0  c-0.4,0.2-0.1,0.3,0.8,0.3S415.8,312,415.3,311.9L415.3,311.9z M402.8,318.2c-8.8-1.5-15.8-5.2-23.1-12.2l-4.1-3.9l3.5,2  c6.7,3.8,11.7,5.8,17.4,7c7.3,1.5,11.2,1.5,16.9,0c5.7-1.5,7.2-2.2,19.4-8.1c10.7-5.2,20.3-9,26.6-10.6c2.2-0.6,4.5-1.2,5-1.4  c0.5-0.2,1.4-0.4,1.9-0.5c10-1.4,18.2-1.8,18.7-1c0.2,0.4-0.1,0.7-0.7,0.7s-2.5,0.3-4.1,0.5c-1.6,0.3-2.8,0.2-2.7,0  c1.2-1.9-15.7,2.1-27,6.4c-7.4,2.8-26.5,12.1-26.5,12.8c0,0.6,3.2-0.7,14.5-5.7c16.9-7.5,22.9-9.9,26.6-10.5c1.6-0.3,1.3,0-1.3,0.9  c-9,3.4-18.1,7.1-18.6,7.6c-0.6,0.6,1.6,0,10.3-2.6c11-3.3,20.3-5,30-5.4c5.3-0.2,10.4-0.1,11.4,0.2c1.2,0.4-0.5,0.5-5.1,0.5  c-7.6,0-15.4,0.5-14.9,0.9c0.4,0.4-10.6,3.8-12.5,3.8c-0.9,0-2.2,0.4-2.8,1c-1.1,0.9-1.1,0.9,0.8,0.3c1.1-0.4,2.5-0.5,3-0.3  s3.8-0.1,7.4-0.6c3.5-0.5,6.9-0.9,7.4-0.7c0.6,0.1-0.7,0.4-2.8,0.7c-6.1,0.8-17.6,3.3-20,4.4c-2.2,1-2.2,1-0.3,0.7  c1-0.2,3.9-0.5,6.3-0.7c7.1-0.6,4.1,0.7-4.1,1.8c-5.6,0.8-10.9,2.2-22.8,6.1c-8.5,2.8-16.6,5.2-17.9,5.5c-1.3,0.2-2.4,0.6-2.4,1  C416.4,319.4,408.2,319.1,402.8,318.2z M427.2,321.4c1.9-0.5,3.7-0.7,4-0.5s0.5,0,0.5-0.4s0.5-0.6,1.3-0.4c0.7,0.2,1.3,0.1,1.3-0.2  c0-0.3,0.2-0.5,0.5-0.4s1.9-0.3,3.6-0.9c3-1,15.3-3.8,19.9-4.5c1.2-0.2,6.2-0.5,11.1-0.6c4.9-0.2,7.8-0.2,6.4,0  c-13.6,1.5-20.3,2.5-28,4.4c-5,1.2-9.3,2.1-9.6,1.9c-0.3-0.2-0.6-0.1-0.7,0.3c-0.2,0.7-9.2,2.6-11.7,2.5  C424.3,322.3,424.8,322,427.2,321.4L427.2,321.4z M421,322.6c0.6-0.2,1.5-0.1,1.9,0c0.4,0.2-0.1,0.3-1.1,0.3S420.4,322.8,421,322.6  L421,322.6z M340.4,324.5c0.5-0.2,1-0.2,1.2,0.1c0.2,0.2-0.2,0.4-0.8,0.3C340,324.9,339.9,324.7,340.4,324.5L340.4,324.5z   M362.5,325.1c0.4-0.2,1.1-0.2,1.6,0c0.4,0.2,0.1,0.3-0.8,0.3S362.1,325.3,362.5,325.1z M120.4,331.5c-1.9-0.5-4.6-1.7-5.9-2.6  c-6.8-4.8-8.4-5.8-9.4-5.8c-2.8,0-0.3-2.4,4.9-4.8c3.1-1.4,4.7-1.7,9.1-1.7c5,0,5.8,0.2,11.5,2.7c12.2,5.4,16.2,9,10.8,9.9  c-1.3,0.2-3.7,0.8-5.2,1.3c-2.7,0.8-10.3,2.2-11.7,2.1C124.1,332.5,122.3,332,120.4,331.5z M388.6,335.1c-0.5-0.3-0.7-0.6-0.3-0.6  c0.3,0,1.1,0.3,1.6,0.6c0.5,0.3,0.7,0.6,0.3,0.6S389.1,335.4,388.6,335.1z M215.3,346.2c0-0.2,0.6-0.6,1.3-1s1.3-0.5,1.3-0.4  c0,0.2-0.6,0.6-1.3,1C215.8,346.2,215.3,346.3,215.3,346.2z M151.7,348.3c-1.7-0.3-4.4-1-5.9-1.5c-2.9-1.1-6.1-1.3-8.3-0.6  c-2.3,0.7-1.5-0.9,2.3-4.7c3.6-3.6,7.3-5.9,11.2-7.1c3.6-1.1,11.9-1.7,16.1-1.1c4.4,0.6,10.8,3.2,12.4,5c0.9,1,0.9,1.1-1.4,1.6  c-2.6,0.5-5.9,2-9.4,4.4C163.8,347.6,157.3,349.1,151.7,348.3z M434.9,355c-4.6-1.3-9.5-3.8-12.5-6.6c-1.4-1.3-4.7-3.7-7.4-5.4  c-2.7-1.7-4.9-3.4-4.9-3.7c0-0.3,0.4-0.4,1-0.2c0.5,0.2,0.8,0.1,0.6-0.2c-0.5-0.8,2.4-1.2,11.1-1.5c15-0.5,20.3,1.5,29.1,10.8  c3.2,3.4,5.7,6.3,5.7,6.5s-0.6,0.4-1.4,0.4s-5.1,0.2-9.6,0.4C440.4,355.8,437.4,355.6,434.9,355z M394.8,364.3c-0.8-1-0.8-1,0.2-0.2  c0.6,0.5,1.1,1,1.1,1.1C396.2,365.7,395.7,365.4,394.8,364.3z M196.3,364.5c1.2-1.2,2.3-2.2,2.5-2.2s-0.6,1-1.8,2.2  s-2.3,2.2-2.5,2.2S195.1,365.7,196.3,364.5z M192.3,365.7c3.7-4.6,14.6-14.9,17.5-16.6c1.5-0.9,2.1-1.1,1.7-0.5  c-0.4,0.5-1.4,1.2-2.1,1.4c-0.8,0.2-1.1,0.8-0.9,1.3c0.2,0.6,0.1,0.8-0.3,0.5c-0.4-0.2-1.8,0.7-3.2,2.2c-1.4,1.4-2.5,2.5-2.5,2.3  s-2.9,2.6-6.4,6.2S190.9,367.5,192.3,365.7z M185.3,371c3.6-6.1,9.5-13.3,10.5-12.8c0.3,0.2,0.5,0,0.4-0.5s0.2-0.8,0.7-0.7  c0.5,0.1,0.7-0.1,0.5-0.4c-1-1.6,13.1-11.6,20.6-14.6c6.1-2.4,22.7-6.3,19.5-4.5c-0.5,0.3-2.2,0.7-3.8,1c-1.6,0.2-5.2,1.4-8,2.7  c-2.9,1.2-5.5,2.1-5.9,1.8c-0.4-0.2-0.7,0.1-0.7,0.7c0,0.7-0.2,0.8-0.4,0.3c-0.2-0.6-1.6-0.1-5,1.7c-6.3,3.4-11.2,7.1-16.1,12  c-2.2,2.3-3.7,3.6-3.2,3s0.7-1.3,0.5-1.5s-1.1,0.8-1.9,2.1c-0.9,1.4-2,2.9-2.4,3.4c-0.5,0.5-1.8,2.2-2.9,3.9c-1.1,1.7-2.2,3-2.4,3  C185,371.7,185,371.4,185.3,371L185.3,371z M188.4,378.5c0.2-0.6,0.6-1,0.8-0.8s0,0.7-0.4,1.1C188.1,379.5,188.1,379.4,188.4,378.5z   M417.3,380.4l-1.2-1.4l1.4,1.2c1.3,1.1,1.7,1.6,1.2,1.6C418.6,381.9,418,381.2,417.3,380.4z M417.3,388c-0.4-0.8-3-4.2-6-7.7  c-8.2-9.7-9.4-11.3-3.8-5.6c5,5.2,11.4,13.7,10.7,14.3C418.1,389.3,417.6,388.8,417.3,388z M343.1,432.7c0-0.7,0.2-0.9,0.4-0.4  c0.2,0.5,0.2,1-0.1,1.2C343.2,433.8,343.1,433.4,343.1,432.7L343.1,432.7z M448.2,455.9c-0.8-2.3-0.6-2.4,0.8-0.4  c0.6,0.9,0.8,1.7,0.4,1.9C449.1,457.6,448.5,456.9,448.2,455.9z M282.3,458.6c0-0.4,0.4-1.1,0.9-1.5c1.7-1.4,5.3-8.1,6.8-12.8  c2-6,3.3-19.7,2.2-23.5c-0.4-1.3-0.3-1.6,0.1-1.2s1,3.2,1.4,6.4c1.4,11.2-1.9,22.8-8.6,30.2C283.7,457.9,282.4,459,282.3,458.6z   M178.8,460.6c0.2-0.6,0.1-0.8-0.2-0.6c-0.3,0.2-0.6,0.7-0.6,1C177.9,461.9,178.4,461.7,178.8,460.6z M177.3,462.1  c0-1.7,1.3-3.4,2.1-2.7c0.2,0.2,0.4-0.1,0.4-0.7s0.3-0.9,0.6-0.7c0.3,0.2,0.6,0,0.6-0.5s1.2-2,2.6-3.4c1.9-1.8,2.3-2,1.4-0.8  c-0.7,0.9-1.4,1.7-1.7,1.7s-0.5,0.7-0.5,1.4c0,1-0.2,1.2-0.6,0.6c-0.4-0.6-0.6-0.5-0.9,0.6c-0.2,0.8-1.2,2.5-2.3,3.7l-1.9,2.2  L177.3,462.1L177.3,462.1z M454.3,471.9c-0.8-1-0.8-1,0.2-0.2c1.1,0.8,1.4,1.3,0.9,1.3C455.3,473,454.8,472.5,454.3,471.9z   M257.4,472.3c3.1-1.8,7.1-4.3,8.8-5.6c4.1-3.1,10.4-8.9,10.4-9.6c0-0.3-2.2,1-4.9,2.9c-3,2.1-8,4.6-12.8,6.6  c-10.9,4.4-14,4.8-5.8,0.8c3.6-1.7,8.5-4.5,10.9-6.1c4-2.7,10.9-9.1,12.1-11.2c0.4-0.7-0.9-1.5-5.3-3.4c-10.8-4.7-23.4-7.2-35.6-7.2  c-4.5,0-9.2,0.3-10.4,0.7c-3.1,0.9-3.7,0.8-2-0.4c7.1-5,26.9-6.5,40.7-3.1c5.5,1.4,12.6,4.3,17.2,7.2c1.8,1.1,1.8,1.1,3.6-1  c2-2.3,2.1-2.2,1.3,1.3c-0.3,1.4-0.3,2.2,0,2s0.6-0.8,0.6-1.3s0.2-0.9,0.5-0.9s0.9-0.6,1.3-1.4c1.6-3.1-0.1,4.3-1.8,8.1  c-3.7,8.1-8.4,12.7-18.7,18.3c-4.5,2.5-14.2,6.7-15.3,6.7C251.9,475.5,254.2,474,257.4,472.3z M456.9,475.3  c-0.9-1.3-1.1-1.7-0.4-1.2c1,0.8,2.6,3.2,2.1,3.2C458.5,477.4,457.8,476.5,456.9,475.3z M320.9,477.4c0-0.3,0.3-0.8,0.6-1  c0.4-0.2,0.5,0,0.2,0.6C321.4,478.1,320.9,478.3,320.9,477.4z M282.3,478.4c0-0.2,0.6-0.6,1.3-1c0.7-0.4,1.3-0.5,1.3-0.4  c0,0.2-0.6,0.6-1.3,1S282.3,478.6,282.3,478.4z M459.4,478.8c-0.8-1-0.8-1,0.2-0.2c0.6,0.5,1.1,1,1.1,1.1  C460.7,480.2,460.2,479.9,459.4,478.8L459.4,478.8z M207.5,487.7c0.4-0.2,1.1-0.2,1.6,0c0.4,0.2,0.1,0.3-0.8,0.3  S207.1,487.9,207.5,487.7z M393.3,489.4c0.7-0.3,1.8-0.5,2.5-0.5c1,0,1,0.1-0.3,0.5C393.4,490.1,391.7,490.1,393.3,489.4z   M240.6,220.5c-0.4-0.7-0.8-1.3-1-1.3s0,0.6,0.4,1.3s0.8,1.3,1,1.3C241.1,221.8,240.9,221.2,240.6,220.5z M245,225.4  c0-0.1-0.8-0.9-1.7-1.7l-1.7-1.5l1.5,1.7C244.5,225.5,245,225.9,245,225.4z M243.1,225.6c-1.1-1.1-2.2-1.8-2.3-1.7  c-0.3,0.3,3.4,3.6,4,3.6C245,227.5,244.2,226.6,243.1,225.6z M250.4,231.3c-0.2-0.4-0.7-0.6-1.1-0.6c-0.5,0-0.4,0.3,0.2,0.6  C250.6,232.1,250.9,232.1,250.4,231.3z M380.2,242c3.2-0.8,5.9-1.7,5.9-2c0-0.8-1.8-0.6-6.8,0.8c-2.6,0.7-4.9,1.1-5.3,0.9  c-0.3-0.2-0.6-0.1-0.6,0.2s-0.8,0.8-1.7,1c-2,0.5-11.6,4.8-12.5,5.5c-0.3,0.3,2.9-0.7,7.3-2.2C370.8,244.7,377,242.8,380.2,242z   M222.5,292.1c2.5-0.6,2.5-0.6-0.6-0.3c-1.7,0.2-4.2,0.5-5.4,0.6s-2.4,0.3-2.5,0.3c-0.7,0.3-1.7,0.4-4.1,0.5  c-1.6,0.1-2.2,0.3-1.7,0.6C209,294.3,217.8,293.3,222.5,292.1L222.5,292.1z M264.1,295.4c-0.8-0.2-2.2-0.2-3.2,0  c-1,0.1-0.3,0.3,1.4,0.3C264.1,295.6,264.9,295.5,264.1,295.4z M236.8,298.7c8.4-2.2,14.1-3.3,19.3-3.7c1.9-0.1,1-0.2-2.2-0.3  c-4.1-0.1-7.3,0.4-13.3,1.8c-4.3,1-8.6,2-9.4,2.2c-0.8,0.2-2.1,0.7-2.8,1.1s-1.4,0.7-1.5,0.6c-0.7-0.5-2.7,0-2.4,0.6  C224.9,301.7,226.2,301.5,236.8,298.7z M337.8,326.4c-0.2-0.2-0.8-0.2-1.2-0.1c-0.5,0.2-0.4,0.4,0.4,0.4  C337.7,326.8,338,326.6,337.8,326.4L337.8,326.4z M352.4,341.6c-0.6-0.2-1.6-0.2-2.2,0s-0.1,0.3,1.1,0.3S353,341.7,352.4,341.6z   M354.1,345.5c-4.8-1.1-6.5-1.1-3.2,0c1.4,0.5,3.5,0.8,4.7,0.8C357.5,346.3,357.1,346.2,354.1,345.5L354.1,345.5z M360.9,346.7  c-0.4-0.2-1.3-0.2-1.9,0s-0.3,0.3,0.8,0.3C360.9,346.9,361.4,346.8,360.9,346.7L360.9,346.7z M371.5,350.2c-0.5-0.3-1.2-0.6-1.6-0.6  c-0.3,0-0.2,0.3,0.3,0.6c0.5,0.3,1.2,0.6,1.6,0.6C372.2,350.8,372,350.6,371.5,350.2L371.5,350.2z M312.6,446.1  c0-2.3-0.1-2.9-0.6-2.2c-0.3,0.5-0.6,2.7-0.6,4.7C311.6,453.3,312.5,451.1,312.6,446.1z M308.1,447.7c0-2.5-0.1-2.4-0.6,1.2  c-0.3,2.2-0.7,4.4-0.8,4.8c-0.2,0.4-0.1,1,0.1,1.2C307.5,455.5,308.2,451.2,308.1,447.7z M291.7,455.5c-0.2-0.2-0.5,0.2-0.8,0.8  c-0.3,0.9-0.3,1,0.4,0.4C291.7,456.3,291.9,455.7,291.7,455.5z M307.4,460.8c-0.2-0.5-0.4-0.4-0.4,0.4c0,0.7,0.1,1,0.3,0.8  S307.6,461.3,307.4,460.8L307.4,460.8z M315.2,490.5c0-0.2,1-2,2.2-4s2.2-4.1,2.2-4.5c0-0.5,0.3-0.8,0.7-0.8c0.4,0,0.5-0.6,0.3-1.4  c-0.3-1-0.2-1.2,0.2-0.6c0.4,0.6,0.9,0,1.7-2.4c0.6-1.8,0.9-3.7,0.7-4.2c-0.2-0.5-0.2-0.9,0.1-0.9c0.6,0,1-8.8,1-20.2  c0-10.2-0.8-14.3-4.3-21.9c-2.2-4.8-7.7-13.3-9.5-14.8c-0.6-0.5,0.3,1.2,2,3.9c6.2,9.6,8.7,19.4,8.2,32.7c-0.2,6.8-0.7,9.8-2,14.2  c-1.8,6.1-5.1,13.1-7.3,15.6l-1.4,1.6l1.4-2.1c3.5-5.2,6.6-16.4,7.3-25.8c0.5-7.8-0.5-15.6-3.1-23.1c-3.2-9.4-7-15.1-17.3-26.1  c-11.9-12.7-15.8-18.2-20.9-29.6c-1.5-3.3,0,2.1,1.7,6.3c2.2,5.4,5.9,10.7,13.1,19.1c7,8.1,12.3,15.3,14.7,20.1  c5.4,10.9,7.5,23.5,5.7,35.7c-0.7,4.5-3,13.3-3.5,12.8c-0.1-0.1,0.2-1.7,0.7-3.4c1.2-3.8,2.1-13.7,1.3-13.4  c-0.3,0.1-1.3,2.4-2.1,5.1c-2.1,6.6-5.4,11.9-10.5,17c-3.7,3.7-10.4,8.7-11.6,8.7c-0.2,0,1.3-1.2,3.3-2.7  c4.7-3.5,11.2-10.4,12.9-13.8c2-3.9,4.3-11.3,3.6-11.7c-0.7-0.4-0.6-0.7-3.1,4.5c-2,4.1-9.2,12.8-9.9,12.1c-0.2-0.2,1.1-1.9,2.9-3.8  c3.5-3.8,6.4-9.5,7.6-14.5c0.4-1.7,0.9-3.7,1.1-4.3c0.2-0.7,0.1-1-0.3-0.8c-0.3,0.2-1.1,2.1-1.7,4.3c-2.9,10.4-9.2,17.1-22.5,23.8  c-9.2,4.7-11.5,5.3-5.3,1.4c4.2-2.6,10.6-8.7,15.2-14.7c3.7-4.7,3.8-5.4,0.4-2.1c-2.5,2.5-3.1,2.7-2.5,1.1c0.4-0.9,0.3-0.9-0.9,0.1  c-1.5,1.3-1.8,2.8-0.3,1.6c0.5-0.4,0.9-0.6,0.9-0.3c0,0.7-3.7,5.9-4.5,6.4c-0.4,0.2,0-0.7,1-2c2.6-3.8,2-3.9-1.5-0.3  c-1.7,1.8-3.6,3.2-4.1,3.2s-1.1,0.3-1.4,0.7c-0.3,0.5-0.1,0.6,0.8,0.3c1.1-0.4,1.1-0.4-0.1,0.6c-1.8,1.5-11.8,7.3-12.1,7.1  c-0.1-0.1,2.3-1.8,5.4-3.7s5.4-3.6,5.1-3.8c-0.3-0.2,0.8-1.2,2.3-2.2s4.5-4,6.5-6.6c4.9-6.4,5.4-7.4,1.3-2.9c-5,5.5-6,6.3-12.9,9.9  c-3.5,1.8-6.2,3.1-6,3c0.2-0.2,2.4-1.9,5-3.9c6.3-4.7,11.5-9.8,15.6-15.4c5.5-7.4,7.8-14.1,7.8-23.3c0-8.7-2.9-17.5-9.8-29.5  c-7.3-12.8-8.5-15-10-19.3c-0.9-2.5-1.9-7-2.2-9.8c-1.2-10.4-1.5-12.2-2.6-14.4c-1.7-3.5-7.7-8.7-12.5-10.9c-4-1.9-4.7-2-11.9-2  c-5.6,0-8.4,0.3-10.6,1.1c-8.1,2.9-16.7,8.6-25.1,16.5c-3,2.8-4.4,4-3.2,2.6c4.7-5.5,7.8-8.4,13.9-13c3.5-2.6,6.2-4.8,6.1-4.9  c-0.9-0.9-16.9,9.6-23.7,15.6c-5.3,4.7-13.9,15.2-17.2,20.9c-1.2,2.1-2.5,4.3-3,4.9c-1,1.4,1.3-4.2,3.3-8c0.8-1.6,2.1-4.2,2.8-5.8  c2.7-6,13-16.9,23.1-24.5c4.9-3.6,13.3-7.9,19.3-9.7c6.6-2,20.4-2.1,26.5-0.1c2.2,0.7,4.2,1.2,4.3,1.1c0.5-0.5-8.1-6.4-12.1-8.3  c-9.3-4.5-21-5.2-35.2-2.1c-5.1,1.1-8.9,1.4-16.4,1.5c-11.1,0.1-16-0.9-23.9-4.9c-14.8-7.4-26.2-23-27.1-36.8l-0.3-4.4l1.2,5.2  c3.1,13.1,13.2,24.9,26.9,31.5c10.9,5.3,23.5,6.4,37.6,3.3c4.3-0.9,9.7-1.9,11.8-2.1c4.3-0.4,14.2,0.6,18.6,1.9  c8.4,2.5,17.6,8.7,23.7,16c4.4,5.3,3.8,5.9,6.7-6.5c1.8-7.8,2.1-9.9,2.1-17.7v-8.9l-2.2-4.4c-2.2-4.4-2.3-4.4-6-5.6  c-7.7-2.3-21.6-1.6-34.2,1.8c-15.2,4.1-20.3,4.9-33.4,5.2c-7.9,0.2-12.5,0-12.5-0.4s3-0.6,7.6-0.5c4.2,0.1,7.6-0.1,7.6-0.3  c0-0.3,0.9-0.5,1.9-0.5c1.1,0,3.1-0.3,4.6-0.6c1.5-0.3,4.9-1.1,7.6-1.6c4.9-1,7-2.6,2.5-1.9l-2.4,0.3l2.5-0.9  c1.4-0.5,4.8-1.5,7.6-2.3s6.2-1.8,7.6-2.3c2.9-1.1,16.6-4,18.8-4c7.7,0,9.6,0.1,11.2,0.6c3.5,1,2-0.3-1.7-1.5  c-8.3-2.5-15.8-2-38.5,2.6c-10.8,2.2-12,2.3-23.1,2.3c-9.5,0-12.8-0.3-17.7-1.4c-8.5-1.9-10.8-2.7-6.3-2.2c1.9,0.2,4.1,0.5,4.7,0.7  c1.7,0.4,17.1,0.3,18.9-0.1c0.8-0.2,2.1-0.4,2.9-0.6c2-0.4,4.9-1.1,13.6-3.2c11.9-2.9,21.3-4.6,26.9-5.1c5.7-0.5,13.4,0.4,17.9,2  c2.3,0.8,2.5,0.8,1.7,0c-1.7-1.7-8.8-4.9-14.7-6.7c-12-3.7-18.9-4.6-30.7-4.4c-5.3,0.1-9.6,0.2-9.6,0.1c0-0.2,9.1-2.1,11.7-2.4  c7.8-1,12.2-1.1,17.8-0.3c23.4,2.9,40.5,15.6,46.9,34.5c1.5,4.5,1.7,6,1.6,13c0,5.7-0.5,9.7-1.5,14.2c-0.8,3.5-1.5,7-1.7,7.9  c-0.2,1.4-0.2,1.4,0.4,0.3c0.3-0.7,1.7-4.1,3.1-7.6s4.3-10.9,6.6-16.5c5-12.2,6-15.6,6.8-22.2c1.1-9.6-1.1-18.7-6.2-26.1  c-2.7-3.9-10-10-15.3-12.7c-5.2-2.6-16.1-5.9-22.5-6.7c-14.8-1.9-24.9-4.5-30.4-8c-4.1-2.6-9.2-6.4-9.2-7c0-0.2,2.1,0.7,4.6,2  c7.8,4.2,15,6.1,29.1,7.9c15,1.9,26.6,4.4,32,7c2.1,1,3.9,1.7,3.9,1.5c0-1.1-15.9-9.7-23.5-12.8c-4.9-1.9-9.4-4.3-9.4-5.1  c0-0.4-0.3-0.5-0.7-0.2c-0.4,0.2-0.9,0.2-1.1-0.1c-0.5-0.7-9.2-6.2-9.4-6c-0.1,0.1-0.4,0-0.6-0.1c-0.3-0.1-0.1-0.2,0.3-0.1  c1.4,0.3,0.9-0.3-1.5-1.9c-4.2-2.9-14.2-12.6-16.8-16.4c-3.1-4.5-4.4-7.5-6.2-14c-1.3-4.9-1.4-7.1-0.2-3.7  c2.3,6.2,5.4,12.6,7.3,15.3c2.4,3.2,2.9,4.6,1.3,3.2c-2.2-1.8-0.7,0.6,1.9,3.2c1.8,1.8,2.7,2.4,2.4,1.6c-0.2-0.7,0.6-0.1,1.9,1.4  c1.3,1.5,3,3,3.7,3.4c0.8,0.4,0-0.6-1.6-2.1c-1.7-1.6-3-3.1-3-3.4c0-0.3-0.8-1.4-1.7-2.5c-2-2.2-3.9-4.9-5.2-7.4  c-0.5-1-1.1-1.7-1.5-1.7c-0.3,0-0.4-0.6-0.2-1.4c0.3-1,0.2-1.2-0.2-0.6c-0.4,0.6-0.7,0.6-1,0.2c-0.2-0.4-0.2-0.7,0.2-0.7  s0.1-1.6-0.6-3.5c-0.7-1.9-1.2-4-1.2-4.6s0.5,0.2,0.9,1.7c1.2,4,4.3,10.3,5.5,11.3c0.7,0.6,0.4-0.6-0.9-4.1  c-2.5-6.7-2.3-7.9,0.3-2.3c4.3,9.2,12,19,20.3,25.9c4.7,3.9,13.6,9.7,13.6,8.9c0-0.2-1.6-1.4-3.6-2.7c-5-3.3-13.6-10.6-15.8-13.4  c-1.8-2.3-3.9-5.3-4.9-7c-0.3-0.4,2.6,2.3,6.4,6.1c7.1,7.2,13.9,12.1,25.5,18.5c19,10.5,31,21.6,37.7,34.9c3.8,7.5,4.9,12.9,4.5,22  c-0.5,10.7-3,19-11.5,37.9c-1.9,4.3-3.4,8-3.2,8.2c0.5,0.5,0.7,0.2,5.1-9.1c6.9-14.4,7.8-16.6,11.8-27.5c4.6-12.5,7-18,11.4-25.2  c9.1-15.2,22-27.6,34.9-33.6c2.4-1.1,5-2,5.9-2.1c0.9,0,1.6-0.3,1.6-0.6s0.6-0.4,1.3-0.2c0.7,0.2,1.3,0,1.3-0.4s0.3-0.3,0.6,0.2  c0.5,0.7,0.6,0.8,0.6,0.1c0-0.6,0.5-0.7,1.3-0.5c0.9,0.2,1.3,0,1.3-0.7c0-0.9,0.1-0.9,0.6-0.1c0.4,0.7,0.6,0.7,0.6,0.1  c0-0.5,0.6-0.7,1.6-0.5c0.9,0.2,1.6,0.1,1.6-0.2c0-0.2,1.7-0.5,3.8-0.6c2.4-0.1,3.8,0.1,3.8,0.5s2.1,0.7,5.7,0.7s5.7,0.2,5.7,0.7  c0,0.4,0.3,0.5,0.6,0.3c0.8-0.5,8,1.4,10.1,2.6c1.2,0.7,1.3,0.8,0.3,0.6c-7.3-1.8-16.6-2.1-24.7-0.7c-7.3,1.3-8.9,1.8-15.8,5.2  c-12.1,6-23.8,16.4-34.6,30.9c-3.6,4.8-14.5,21.8-16.4,25.6c-0.8,1.6-3.9,7.1-6.8,12.3c-8.1,14.3-12.5,23.8-14.1,30.3  c-1.7,7.4-1.8,17.1-0.1,23.4l1.2,4.4v-7.9c0-11.8,2.1-19.3,9.6-35.6c4-8.5,17.4-30.5,22.8-37.2c14.4-18,24.8-27,38.4-33.6  c8.4-4,14.4-5.3,22.7-4.9c10.3,0.5,10.4,1.4,0.2,1.4c-8.5,0-9.3,0.1-14.9,2.1c-13.1,4.5-22.5,11.2-33.5,23.8  c-5.6,6.4-7.7,9.3-19.7,26.5c-3.6,5.2-8.1,11.6-10,14.2c-6.2,8.7-11.5,20.8-12.5,28.5c-0.2,1.8-0.6,3.1-0.9,3  c-0.5-0.3-0.3,2.4,0.5,5.3l0.6,2.2l0.1-1.9c0.1-1,0.1-2.8,0.1-3.8c0-1.7,0-1.7,0.4-0.4c0.4,1.3,0.7,0.9,2.6-2.8  c5-10.1,13.2-19.4,21.3-24c7.1-4.1,14.3-6.9,13.2-5.2c-0.3,0.5,0,0.6,1.1,0.4c0.8-0.2,2.4-0.4,3.4-0.5c1.6,0,1.7-0.1,0.7-0.5  c-1.1-0.4-1-0.5,0.6-0.8c1-0.2,2.2-0.1,2.7,0.3s0.8,0.4,0.8,0c0-0.3,1.4-0.6,3-0.5c1.7,0.1,4.5,0.2,6.4,0.2c5.1,0.1,3.5,1.1-2.2,1.3  c-6.2,0.2-11.7,1.5-16.9,3.8c-4,1.8-13,7.3-13,8c0,0.2,2.3-0.9,5.2-2.5c2.9-1.5,7.5-3.6,10.3-4.6c4.9-1.7,5.5-1.8,16.8-1.8  c8.7,0,12.9,0.3,16.4,1.1c4.7,1.1,13.6,4.2,13.2,4.6c-0.1,0.1-2.1-0.3-4.3-1c-6.8-2.1-15.4-3.2-24.7-3.2c-9.7,0-10,0.1-17.3,2.4  c-5.6,1.8-9.7,3.9-13,6.7c-1.6,1.4-1.7,1.6-0.4,0.8c6.5-3.9,18.1-6.7,29.8-7.2c8.4-0.3,9.3-0.3,9.3,0.7c0,1.1,1,1.4,1.5,0.5  c0.4-0.6,2.9-0.2,2.9,0.5c0,0.2,0.9,0.4,2.1,0.4c3,0.1,12.1,3,19.4,6.2c21.4,9.5,45.4,32.9,53.8,52.5c1.6,3.6,1.1,3.8-0.7,0.2  c-2.4-4.8-9.2-14.6-13.8-19.9c-8-9.4-23.6-22-32.8-26.7c-4.3-2.2-4-1.6,0.7,1.5c6.7,4.4,11.4,8.4,18.4,15.6  c12.8,13.1,19.8,24.3,23.9,37.9c3.1,10.5,2.6,10.9-1.8,1.6c-7.6-16.2-13.6-25-24.1-35.5c-10.8-10.8-22.8-18.2-37.7-23.3  c-6.7-2.3-16.6-4.2-22-4.2c-4.5,0-2.2,1.1,3.8,1.9c23.3,2.9,45.2,15.7,59.7,34.7c4,5.2,2.8,4.4-5.8-3.8c-3.9-3.7-9.1-8.3-11.6-10.2  c-14.6-10.9-32.9-18.4-47.7-19.6c-1.8-0.1-3.2,0-3,0.3s0.9,0.5,1.6,0.5c1.7,0,14.1,3,17.3,4.2c20.6,7.8,27.8,12,38.7,22.7l6.3,6.1  l-5.4-4.7c-7.8-6.9-14.8-11.9-21.2-15.2c-4.9-2.5-12-5.6-12.9-5.5c-0.2,0,2.3,1.4,5.4,3.1c5.9,3.1,11.3,6.6,11.9,7.6  c0.2,0.3-2.4-1.1-5.8-3.3c-17.7-11.1-37.2-15.1-51.2-10.5c-12.1,4-22.3,15.8-22.9,26.6c-0.4,6.6,1.8,10.7,12.5,23.6  c9.2,11,12.2,16,15.2,25.1c2.5,7.3,2.3,8.1-0.4,2.4c-1.8-3.8-8.9-15.2-9.4-15.2c-0.1,0,1.5,3.3,3.5,7.2c3.8,7.5,5.8,14.6,6.7,22.8  c0.2,2.3,0.6,4.1,0.8,4c0.2-0.1,3.7-1.8,7.7-3.8c8.4-4.2,14-5.8,24.3-6.9c10.1-1.1,20.4-0.1,27.6,2.7c2.8,1.1,5,2.2,5,2.6  s-0.4,0.5-0.9,0.3s-3.1-0.7-5.9-1.1c-13.8-2-43.2,3.4-55,10.2c-3.4,1.9-4,3.2-4,8.5c0,1-0.2,2.2-0.5,2.7c-0.3,0.4-0.6-3.6-0.7-8.9  c-0.2-14.1-1.4-20-5.9-29.2c-1.7-3.5-8.1-12.5-9.5-13.3c-0.3-0.2,0.8,1.7,2.4,4.3c7.6,11.8,11.1,25.1,10,38.3  c-0.3,3.8-0.6,5.1-1,4.3l-0.5-1.3l-0.1,1.3c0,0.7-0.2,2-0.4,2.8c-0.3,1.4-0.2,1.4,0.3,0.3c1.1-2.4,0.7-0.1-1,5.1  c-0.9,2.9-1.9,5.1-2.2,4.9c-0.3-0.2-0.3-1.8-0.1-3.7c0.2-1.9,0-3.9-0.3-4.6c-0.5-0.9-0.7-0.5-0.8,2c-0.1,1.7-0.1,3.5-0.1,3.9  s-0.2,0.6-0.5,0.4s-0.9,0.5-1.3,1.4c-1.4,3.4-4.6,9.4-6.5,12.2C320.5,484.3,315.2,491,315.2,490.5L315.2,490.5z M253.7,503.5  c0.5-0.2,1-0.2,1.2,0.1c0.2,0.2-0.2,0.4-0.8,0.3C253.4,503.9,253.2,503.7,253.7,503.5L253.7,503.5z M357.4,503.9  c0.4-0.4,0.9-0.6,1.1-0.4s-0.2,0.5-0.8,0.8C356.9,504.6,356.8,504.5,357.4,503.9L357.4,503.9z M236.1,504c0-0.3,0.6-0.4,1.3-0.2  c0.7,0.2,1.3,0.4,1.3,0.6c0,0.1-0.6,0.2-1.3,0.2C236.7,504.6,236.1,504.3,236.1,504z M186.6,504.2c0.4-0.2,1.1-0.2,1.6,0  c0.4,0.2,0.1,0.3-0.8,0.3S186.2,504.3,186.6,504.2z M182.8,504.2c0.4-0.2,1.1-0.2,1.6,0c0.4,0.2,0.1,0.3-0.8,0.3  S182.4,504.3,182.8,504.2z M257.5,504.8c0.5-0.2,1-0.2,1.2,0.1c0.2,0.2-0.2,0.4-0.8,0.3C257.2,505.2,257,505,257.5,504.8  L257.5,504.8z M231.6,504.8c0.4-0.2,1.1-0.2,1.6,0c0.4,0.2,0.1,0.3-0.8,0.3C231.5,505.1,231.1,505,231.6,504.8z M401.1,506.7  c0.4-0.2,1.1-0.2,1.6,0c0.4,0.2,0.1,0.3-0.8,0.3C401,507,400.7,506.9,401.1,506.7z M175.1,466.7c0.2-0.3,0.1-0.7-0.2-0.9  c-0.3-0.2-0.5,0.1-0.5,0.6C174.4,467.4,174.6,467.5,175.1,466.7z M229.6,499.2c-0.2-0.2-0.8-0.2-1.2-0.1c-0.5,0.2-0.4,0.4,0.4,0.4  C229.5,499.5,229.9,499.4,229.6,499.2L229.6,499.2z M232.2,499.8c-0.2-0.2-0.8-0.2-1.2-0.1c-0.5,0.2-0.4,0.4,0.4,0.4  C232,500.1,232.4,500,232.2,499.8L232.2,499.8z M241.8,500.8c0-0.3-0.1-0.6-0.3-0.6s-0.5,0.3-0.7,0.6c-0.2,0.3-0.1,0.6,0.3,0.6  C241.5,501.4,241.8,501.1,241.8,500.8z M252.6,505.7c-3.3-1-8.4-2.6-11.3-3.4c-5.2-1.4-7.8-2.6-4.4-2c0.9,0.2,1.6,0.1,1.4-0.2  c-0.3-0.4-5.3-0.5-5.3-0.1c0,0.3,4.5,2.4,7,3.1l2.8,0.9l-2.5-0.4c-1.4-0.2-3.4-0.7-4.4-1.2s-3.2-1-4.7-1.2c-1.6-0.2-3.6-0.6-4.4-0.7  c-1.2-0.3-1.4-0.2-0.7,0.3c0.8,0.5,5.3,1.5,7.9,1.6c0.3,0,0.7,0.4,0.8,0.8c0.2,0.5-0.5,0.6-2.2,0.4c-1.3-0.2-3.3-0.4-4.5-0.4  c-1.1,0-2.1-0.3-2.1-0.7c0-0.4-0.2-0.4-0.6,0c-0.4,0.4-4.1,0.4-9.6,0.1c-5-0.3-16.3-0.4-25.2-0.4c-27.7,0.2-36.8-0.1-36.4-1.1  c0.3-0.8-1.1-1.1-4.4-1.1c-0.4,0-0.6-0.5-0.4-1.2c0.2-0.7,0-1.2-0.4-1.2c-1.5,0-0.5-1.4,5.4-8c5.4-6.1,8.3-9.6,12.6-15.3  c3.2-4.3,5.9-7.1,6.2-6.2c0.2,0.5,0.2,0.2,0.1-0.5c-0.2-1.4,1.8-3.7,2.5-3c0.2,0.2,0.3,0,0.1-0.6s-0.1-1.2,0.3-1.4  c0.6-0.4,1,0.5,0.7,1.9c-0.1,0.3,1-0.5,2.5-1.9c1.4-1.4,2.6-2.8,2.6-3.2c0-0.4,0.7-1,1.5-1.4s3.3-3.1,5.5-6.1s4.4-5.5,4.8-5.7  c0.9-0.4-1.2,3.5-3.5,6.5c-0.9,1.2-2.2,3.2-2.9,4.5c-1.5,2.8-7.2,11.3-13,19.2c-2.3,3.1-4.6,6.3-5.1,7s-2.7,3.7-4.9,6.5l-4,5.1  l3-0.5c4.9-0.8,47.9-0.5,54.6,0.4c3.3,0.4,10.2,1.6,15.3,2.7c7.3,1.5,9.3,2.2,9.4,3c0,0.7,0.2,0.7,0.4,0.2c0.2-0.4,0.8-0.8,1.4-0.8  c0.9,0,0.9,0.1,0.1,0.6c-0.5,0.3-0.7,0.8-0.5,1.1c0.3,0.3,0.8,0.1,1.2-0.3s1.1-0.7,1.4-0.7c0.4,0,0.2,0.3-0.3,0.6  c-0.8,0.6-0.8,0.7,0,1.2c0.5,0.3,1.3,0.5,1.8,0.3s0.7-0.1,0.5,0.2c-0.2,0.3,1.2,0.9,3,1.4c3.2,0.8,9,3.1,7.7,3.1  C258.9,507.6,255.9,506.8,252.6,505.7z M244,507.1c-1-0.4-1.1-0.6-0.2-0.6c0.6,0,1.2,0.2,1.5,0.6C245.8,507.9,245.7,507.9,244,507.1  z M380.2,516.3c1.5-0.5,4.8-1,7.3-1.2c4.3-0.3,4.2-0.3-2.1,0.9C377.7,517.4,376.5,517.5,380.2,516.3z M374.1,517.9  c0.5-0.3,1.4-0.6,1.9-0.6c0.8,0,0.8,0.1,0,0.6c-0.5,0.3-1.4,0.6-1.9,0.6C373.2,518.5,373.2,518.4,374.1,517.9z M385.4,517.9  c4-1,7.4-1.7,7.7-1.5c0.2,0.1,0.3-0.4,0.2-1.2c-0.1-0.8-0.1-1.1,0.1-0.6c0.2,0.4,0.8,0.8,1.4,0.7c0.9,0,0.9-0.1,0.1-0.4  c-1.7-0.7,5.8-2,17.4-3c9.2-0.8,17.5-1,43.3-0.7c35.9,0.3,46.5,1.1,35.3,2.6c-3.1,0.4-3.8,1.1-1.9,2.1c3.1,1.8-2.6,2-19.1,0.8  c-15.2-1.1-40.4-1.4-53.8-0.7c-13.2,0.7-28.4,2.2-33.2,3.2C376.9,520.4,378.5,519.6,385.4,517.9z M336.1,519.6  c2.1-2.7,19-15.2,19-14c0,0.2-2.2,1.8-4.9,3.6c-5.1,3.4-9.1,6.5-12.8,9.7C336.2,519.9,335.6,520.2,336.1,519.6z M246.3,519.1  c-12.2-2.1-22.9-3.2-39.5-3.8s-18-0.6-48.4,1.7c-8.3,0.6-14.4,0.8-15.7,0.5l-2.1-0.5l1.2-1.6l1.3-1.6l-2.9-0.1  c-1.6-0.1-3.2-0.4-3.5-0.7c-0.6-0.6,6.4-1.4,15.3-1.6c3.3-0.1,12.1-0.5,19.6-1c26-1.5,57.7,1,76.5,6.1c3.3,0.9,6.4,1.7,6.9,1.8  s1,0.5,1.2,1c0.2,0.7,0.1,0.7-0.4,0s-0.7-0.7-1,0.2C254.5,520.6,254.9,520.6,246.3,519.1L246.3,519.1z M257.3,521.1  c-0.8-0.4-0.9-0.6-0.3-0.6c0.5,0,1.4,0.2,1.9,0.6C260.1,521.8,259.1,521.8,257.3,521.1z M455.5,525.7c0.5-0.2,1-0.2,1.2,0.1  c0.2,0.2-0.2,0.4-0.8,0.3C455.2,526,455,525.9,455.5,525.7L455.5,525.7z M201.3,526c0-0.3,1.1-0.5,2.5-0.5s2.5,0.1,2.5,0.2  c0,0.1-1.1,0.4-2.5,0.5C202.5,526.4,201.3,526.2,201.3,526z M430.5,526.6c-0.6-0.2,3.7-0.4,9.7-0.4c5.9,0,10.5,0.1,10.1,0.2  C449.1,526.9,431.6,527.1,430.5,526.6z M404.9,527.3c1-1.1,22.9-1.7,22.9-0.6c0,0.4-2.8,0.7-7.8,0.7c-4.3,0-9.6,0.2-11.9,0.4  C404.7,528.1,404.2,528,404.9,527.3L404.9,527.3z M401.9,527.7c0-0.5,0.4-0.9,0.9-0.9s0.9,0.3,0.9,0.6s-0.4,0.7-0.9,0.9  S401.9,528.2,401.9,527.7z M398.1,528c0-0.3,0.7-0.6,1.6-0.6s1.6,0.3,1.6,0.6s-0.7,0.6-1.6,0.6C398.8,528.6,398.1,528.4,398.1,528z   M396.4,528.3c0-0.5,0.2-0.9,0.5-0.9s0.5,0.4,0.5,0.9s-0.2,0.9-0.5,0.9C396.6,529.3,396.4,528.8,396.4,528.3z M394.3,528.7  c0-0.3,0.3-0.8,0.6-1c0.3-0.2,0.6,0.1,0.6,0.6s-0.3,1-0.6,1C394.6,529.3,394.3,529,394.3,528.7z M358.9,528.7c0-0.3,0.3-0.8,0.6-1  c0.4-0.2,0.5,0,0.2,0.6C359.3,529.4,358.9,529.6,358.9,528.7z M391.8,529c0-0.5,0.5-0.9,1-0.9c0.8,0,0.9,0.2,0.2,0.9  c-0.4,0.5-0.9,0.9-1,0.9S391.8,529.5,391.8,529z M347.5,531.8c0.5-0.3,1.2-0.6,1.6-0.6c0.3,0,0.2,0.3-0.3,0.6s-1.2,0.6-1.6,0.6  S347,532.1,347.5,531.8z M130.4,556c0.5-0.2,1-0.2,1.2,0.1c0.2,0.2-0.2,0.4-0.8,0.3C130,556.4,129.9,556.3,130.4,556L130.4,556z   M208.3,556.4l-7.9-0.3l8.2-0.2c13.1-0.3,42.2-0.2,42.6,0.2C251.6,556.6,217.5,556.9,208.3,556.4z M166.9,556.6  c-1.4-0.2,5.5-0.5,15.3-0.6s17.9,0.1,17.9,0.3C200.1,556.9,170.4,557.1,166.9,556.6z M149.5,556.5l-10.4-0.4l11.5-0.1  c7.4-0.1,11.5,0.1,11.5,0.5c0,0.3-0.5,0.6-1.1,0.5S155.2,556.7,149.5,556.5z M454.9,557.3c0.5-0.2,1-0.2,1.2,0.1  c0.2,0.2-0.2,0.4-0.8,0.3C454.6,557.7,454.4,557.5,454.9,557.3L454.9,557.3z M434.8,557c0-0.2,1.6-0.4,3.5-0.4s3.4,0.2,3.3,0.3  C441.1,557.3,434.8,557.4,434.8,557z M404.9,484c-0.2-0.2-0.8-0.2-1.2-0.1c-0.5,0.2-0.4,0.4,0.4,0.4  C404.7,484.3,405.1,484.2,404.9,484L404.9,484z M414.5,483.5c0-0.1-0.7-0.1-1.6,0.1s-1.4,0.6-1.2,0.9  C412,484.9,414.5,484.1,414.5,483.5L414.5,483.5z M215.1,535.8c-0.6-0.2-1.6-0.2-2.2,0c-0.6,0.2-0.1,0.3,1.1,0.3  C215.2,536.1,215.7,536,215.1,535.8z M206.7,536c1.9,0.2,2.3,0.1,1.8-0.4c-1-1-6.1-0.5-6.4,0.5c-0.2,0.6,0,0.7,0.9,0.2  C203.7,536,205.3,535.9,206.7,536z M200.7,536.2c0-0.3-0.3-0.6-0.7-0.6s-0.5,0.3-0.3,0.6s0.5,0.6,0.7,0.6  C200.6,536.9,200.7,536.6,200.7,536.2z M198.3,535.7c-0.5-0.2-1.1,0-1.5,0.4c-0.5,0.5-0.2,0.6,0.8,0.3  C198.5,536.2,198.7,535.9,198.3,535.7z M195,536.2c0-0.3-0.8-0.6-1.7-0.6c-1.5,0-1.6,0.1-0.5,0.6C194.5,537,195,537,195,536.2z   M189.8,535.9c-0.1-0.1-1.1,0-2.3,0.2c-1.4,0.2-1.8,0.5-1.3,0.8C186.9,537.3,190.3,536.3,189.8,535.9z M238.4,537.5  c0.2-0.3-0.1-0.6-0.6-0.6s-1,0.3-1,0.6s0.3,0.6,0.6,0.6S238.1,537.8,238.4,537.5z M374.6,539.4c3.4-0.7,8.6-1.4,11.5-1.6  c3-0.2,6.7-0.5,8.2-0.7c1.6-0.1,6-0.6,9.8-0.9c3.8-0.4,14.1-0.7,22.8-0.7c8.7,0,17.4-0.3,19.3-0.5l3.5-0.4l-5.9-0.5  c-6.5-0.5-41.1-0.6-41.9-0.1c-0.7,0.4-3.7,0.9-8.9,1.3c-4.1,0.4-6.6,0.7-6.6,0.9c0,0.1-1.1,0.2-2.4,0.4c-4.2,0.5-17,3.4-18.1,4.1  c-0.8,0.5-0.6,0.6,0.8,0.3C367.6,540.8,371.2,540.1,374.6,539.4z M266.9,540.6c-1.6-1-19-3.7-22.9-3.6c-2.1,0,0.5,0.6,7.3,1.5  c5.7,0.8,11.6,1.7,13,2.1C267.7,541.4,268.3,541.4,266.9,540.6z M293.7,541.7c0-0.5-6.5-4.2-6.7-4c-0.2,0.1,1.2,1.1,3.1,2.2  C293.7,542,293.7,542,293.7,541.7z M296.9,542.3c0-0.1-0.8-0.7-1.7-1.3l-1.7-1.1l1.5,1.3C296.3,542.5,296.9,542.8,296.9,542.3z   M261,542.1c-0.4-0.2-1.3-0.2-1.9,0s-0.3,0.3,0.8,0.3C260.9,542.4,261.4,542.3,261,542.1L261,542.1z M141.7,542.9  c-1-0.7-7.4-0.5-7.4,0.3c0,0.3,1.9,0.4,4.1,0.4C141.3,543.5,142.3,543.3,141.7,542.9z M131.4,543.8c1.1-0.5,1.1-0.5-0.3-0.5  c-0.9,0-2.4,0.2-3.5,0.5l-1.9,0.5h2.2C129.2,544.3,130.7,544.1,131.4,543.8z M110.6,548.2c0.7-1.1-0.1-1.3-1-0.3  c-0.5,0.6-0.5,1-0.1,1S110.4,548.6,110.6,548.2z M324.1,565.6c4.9-1,10.4-3.1,10.3-3.8s-8.5-5.4-14.8-8.2l-4.8-2.2l-4.4,2.7  c-2.4,1.5-6.9,3.9-10.1,5.3l-5.7,2.7l2.1,1.1c3.3,1.7,8.2,3,13.3,3.5C315.3,567.1,317.7,566.9,324.1,565.6z M327.4,576.4  c2.6-0.5,6.9-1.8,9.5-2.9c6.2-2.6,11.6-8,13.3-13.5c1.4-4.3,0.9-5.3-0.8-1.9c-3.2,6.2-13.2,13.5-21.4,15.7c-5,1.3-18.5,1.9-23.4,1  c-8.2-1.5-19.4-9.3-23.5-16.4c-2-3.4-2.7-2.5-1.2,1.4c3.4,8.9,12,15.1,23.4,16.8C309.1,577.6,322.5,577.4,327.4,576.4z M299.5,578.6  c-11.7-3.2-18.9-8.8-22-17.3l-1.8-4.8l-22.9-0.3l9.8-0.3c7.7-0.3,9.2-0.5,6.9-0.8c-1.6-0.3-3.7-0.3-4.5-0.1  c-0.9,0.2-10.9,0.1-22.4-0.3c-11.4-0.4-28.8-0.7-38.7-0.8c-9.8-0.1-17.5-0.3-17.1-0.6c0.8-0.5,30-0.9,59.3-0.8  c20.8,0,10.4-0.7-17.8-1.3c-27.1-0.5-45.5,0-45.5,1.3c0,0.5-0.3,0.9-0.6,0.9s-0.6-0.3-0.6-0.6s-1-0.6-2.2-0.6s-2.1,0.3-1.9,0.6  c0.2,0.3-1.4,0.6-3.9,0.5c-2.4,0-8.3,0.1-13.1,0.4c-4.9,0.3-11.4,0.6-14.4,0.7c-3.1,0.1-5.8,0.4-6,0.5c-0.9,0.5-24.8,1.1-27.6,0.7  c-2.1-0.3-2.9-0.7-2.9-1.5c0-0.6-0.4-1.6-0.9-2.3c-0.7-1-0.8-2-0.3-4.4c0.3-1.7,0.9-3.4,1.2-3.8c0.4-0.4,2.3-0.7,4.3-0.8  s6.5-0.3,9.9-0.5c11.1-0.7,36.1-1.4,53.5-1.6c19-0.2,18.4-0.2,26.7,0.1c3.4,0.1,6.2,0,6.2-0.3s0.5-0.4,1.1-0.2s5.8,0.4,11.5,0.4  c5.7,0.1,13,0.3,16.1,0.6c9.8,0.9,19.3,1.2,16.8,0.6c-3.4-0.9-24.9-3-31.6-3.1c-3.3-0.1-6.2-0.2-6.5-0.4c-1-0.6-39.6-0.2-56.5,0.5  c-19.3,0.9-34.1,1-34.9,0.3c-0.3-0.3,0.3-1.3,1.2-2.2c2-2.1,2.1-2.6,0.6-3.6c-0.9-0.7-0.5-0.8,2.6-1.2c2.6-0.3,3.8-0.2,4.1,0.3  c0.4,0.6,0.8,0.6,2-0.1c2-1.1,1.6-1.1,44.8-1.4c29.2-0.2,40.4-0.1,47.2,0.6c20.8,2,31.8,4.2,47.2,9.4c4.4,1.5,8.1,2.6,8.1,2.5  c0-0.5-7.7-3.7-16.7-7.1c-12.3-4.6-26.8-7.5-43.3-8.6c-3.6-0.2-7.3-0.5-8.2-0.6s-3.2-0.2-5-0.2c-5.9-0.2-3-1.4,3.2-1.3  c24.6,0.1,51.7,6,71.6,15.4c4.7,2.2,9.5,4.7,10.6,5.5s1.8,1.1,1.5,0.7c-0.7-1.1-17.9-11.1-22.2-12.9c-7.1-2.9-15.1-5.4-18.2-5.5  c-0.6,0-1.1-0.5-1.1-1.2c0-0.8-0.1-0.9-0.5-0.3c-0.3,0.5-1.2,0.7-2.4,0.5c-6.9-1.3-17.4-2.9-22.7-3.4c-7.5-0.7-35.2-0.4-42.4,0.5  c-2.8,0.3-8.5,0.8-12.7,1s-9.3,0.5-11.4,0.6c-2.1,0.1-6.2,0.5-9.2,0.9s-9.1,0.8-13.7,1.1c-8.8,0.4-10.3,0-8.2-2.2  c1.2-1.4,1.3-2.9,0.2-2.4c-0.5,0.2-1.2,0.1-1.7-0.2c-0.6-0.4-0.2-0.6,1.3-0.7c1.2-0.1,3.1-0.2,4.1-0.3s4.3-0.5,7.3-0.8  c8.4-0.9,36.1-2,52.5-2c15,0,31,1.1,40.8,2.9c12,2.2,16.1,3,15.9,3.4c-0.1,0.2,0.8,0.4,2.1,0.5c3.8,0.2,27,8.1,35.5,12.1  c1.2,0.6,2.6,1.1,3,1.2c0.5,0.1,1.9,0.7,3.3,1.4s2.5,1.1,2.5,1c0-0.4-7.1-5.4-10.8-7.6c-4.6-2.7-5-3.4-0.7-1.2  c3.8,1.9,4.7,2,2.6,0.2c-1.6-1.3-1.6-1.3,0.8,0c5.6,3.2,7.3,4.2,10,6.3l2.8,2.3l-3.9-4.7c-4.6-5.7-7.7-8.6-14.5-13.6  c-5.2-3.9-16.3-10.7-22.6-14c-4.9-2.5-3.6-2.7,1.7-0.2c2.3,1.1,4.4,1.9,4.6,1.7c0.2-0.2-2.1-1.5-5.1-3c-3-1.4-5.4-2.7-5.4-2.8  c0-0.4,5.5,1.8,11.6,4.7c9.4,4.3,27.2,17.2,33.7,24.3l3.6,3.9l-1.8-3.2c-5.7-10.1-11.5-17-19.6-23c-5.8-4.4-7.9-5.6-17.7-10.8  c-13.2-7-27.8-11.3-45.9-13.5c-12-1.4-28.4-2.6-33.1-2.4c-1.4,0.1-1.7-0.1-1.4-1.1s0.1-1.1-1.4-0.8c-1,0.2-2.7,1-3.8,1.8  s-2.1,1.3-2.1,0.9c0-0.3,0.8-1.2,1.7-1.8c1.7-1.2,1.6-2.9-0.1-2.3c-0.5,0.2-0.9,0.1-0.9-0.2c0-0.9,3.4-4.1,4.3-4.1  c0.5,0,0.7-0.3,0.5-0.6c-0.5-0.8,11-14.9,18-22.1c5.8-5.9,5.5-4.9-1.2,4.7c-3.5,5.1-2.6,5.5,1.2,0.6c6-7.7,9.2-11.3,8.3-9.4  c-1,2.1-14.7,22.7-16.1,24.2l-1.3,1.4h5.6c6.9,0,11.6,0.4,21.5,1.6c29.6,3.7,52.5,13.8,72,31.7c6.3,5.8,14.4,15.3,16.2,19  c1,2.1,1,2.1,1.6,0.7c0.3-0.8,0.8-6.4,1.1-12.5c0.6-11.4,1.7-22,2.4-23.1c0.8-1.3,1.4,4.4,2.1,20.1c0.4,8.9,1,16.1,1.3,15.9  s1.1-1.4,1.7-2.7c1.2-2.4,6.7-9.2,12-15c13.2-14.4,35.7-26.1,63.2-32.9c7.8-2,23.9-4.1,31.9-4.3c3.4-0.1,6.2-0.2,6.2-0.3  c0-0.1-1.7-2.4-3.7-5.1c-4.7-6.2-15.1-22.3-14.4-22.3c0.2,0,1.3,1.4,2.6,3.1c1.2,1.7,3.6,4.7,5.4,6.6c1.7,1.9,3.4,4,3.8,4.6  s0.8,1,1,0.8s-1.2-2.7-3.2-5.6c-1.9-2.9-3.4-5.4-3.2-5.5c0.2-0.2,3.9,3.8,8.4,8.8s10.1,11.1,12.5,13.5c2.4,2.5,4.7,5.1,5.1,5.8  c0.4,0.7,1.5,2.6,2.4,4.2l1.7,2.9l-2.6-2.2c-1.6-1.4-3.2-2.2-4.1-2.1c-0.8,0.1-1.5,0.3-1.5,0.6c0,0.2-0.6,0.5-1.4,0.5  s-3,0.2-4.9,0.3c-1.9,0.1-7.7,0.6-12.8,0.9c-9.2,0.7-19.4,2-25,3.2c-1.6,0.4-3,0.5-3.1,0.4c-0.3-0.3,7.6-2.6,11.1-3.3  c1.2-0.2,2-0.6,1.8-0.8c-0.5-0.5-12.4,1.9-12.4,2.5c0,0.3-0.3,0.3-0.6,0.1c-0.3-0.2-2.8,0.2-5.5,1s-5.2,1.4-5.5,1.5  c-0.4,0.1-1.1,0.3-1.6,0.5s-2.4,0.9-4.1,1.4c-2.9,0.9-12.2,5.1-17.2,7.7c-1.1,0.6-2.2,0.9-2.4,0.7s3.4-2.2,8-4.5  c7.8-3.8,27.1-10.6,30.3-10.6c0.7,0,1.2-0.2,1.2-0.5c0-1.2-15.8,2.6-25.4,6c-14.9,5.3-32,15.9-39.5,24.3c-4.4,4.9-5.1,6.1-2.2,3.4  c7.4-6.7,13.9-11.4,21.6-15.7c4.7-2.6,4.9-2.6,4.9-1.5c0,0.4-1.2,1.2-2.7,1.6c-3.3,1-10.9,5.7-15.6,9.6c-3.7,3.1-10.8,10-10.8,10.6  c0,0.2,0.9-0.4,2.1-1.2l2.1-1.4l-1.7,2.1c-1,1.2-1.7,2.4-1.7,2.7s-0.4,0.6-0.8,0.6c-0.8,0-1.4,0.9-5.1,7.6l-1.9,3.5l5.6-5.7  c18.2-18.6,41.9-30,72.4-34.8c5.3-0.8,13-1.1,38.4-1.4l31.8-0.3l-2.5-2.7c-1.4-1.5-3-3.5-3.6-4.5s-2.2-3-3.4-4.4  c-1.2-1.4-1.7-2-0.9-1.4c2.7,2.2,3,1,0.4-1.6c-1.5-1.5-2.7-2.9-2.7-3.2c0-0.9,1-0.4,2.7,1.2c1,0.9,1.7,1.3,1.7,1  c0-1.1-1.4-3.9-2-3.9c-0.3,0-0.4,0.3-0.2,0.6c0.2,0.3,0.1,0.6-0.3,0.6s-0.7-0.3-0.7-0.6s-0.4-0.5-0.9-0.3s-1.1-0.2-1.3-1  c-0.2-0.7-2.2-3.4-4.4-6c-2.2-2.6-4.6-5.6-5.5-6.8c-0.8-1.2-1.8-2.4-2.2-2.8c-0.9-0.8-7.9-10.1-9.5-12.7c-0.6-1,0.7,0.1,2.9,2.5  c8,8.6,9.2,9.7,10.4,9.9c0.8,0.1,1.3,0.8,1.5,1.7c0.2,1.2,0.3,1.3,0.8,0.6c0.5-0.7,0.7-0.7,1.4,0.3c0.9,1.5,5.5,6.9,8.4,10  c1.2,1.3,2.2,2.6,2.2,2.9s0.7,1.3,1.7,2.1c0.9,0.8,3.5,4,5.8,6.9c2.3,3,4.5,5.6,5,5.9c0.4,0.3,0.8,0.9,0.8,1.4s0.7,1.2,1.5,1.6  c1.8,0.8,3,2.7,3.3,4.9c0.1,0.9,0.5,1.7,0.9,1.9c1.5,0.5,0.6,1.5-1.1,1.3c-1.5-0.2-1.8-0.1-1.5,0.7c0.3,0.8,0.2,0.8-0.5,0.3  c-0.5-0.4-1.8-0.6-2.8-0.6c-1,0.1-2.3-0.2-2.8-0.6c-0.7-0.5-0.8-0.5-0.4,0.2s0.2,0.8-0.9,0.4c-1-0.3-1.3-0.2-1,0.3  c0.3,0.4,1,0.6,1.7,0.4c0.8-0.2,1.1,0,1,0.4c-0.2,0.5-4.3,0.8-14.4,0.9c-7.8,0.1-18.2,0.4-23,0.7c-4.9,0.3-12,0.6-15.8,0.6  c-6.8,0-16.8,1.1-17.4,1.8c-0.2,0.2,1.1,0.2,2.8-0.1c1.7-0.2,5.6-0.5,8.5-0.7c5.3-0.3,5.2-0.3-1.9,0.6c-4,0.5-8.3,0.8-9.5,0.6  c-2.8-0.4-19.2,2.8-26.5,5.1c-5.9,1.9-15.8,5.6-18.6,7.1c-3.3,1.7-2.5,0.4,1-1.6c7.1-4.1,18-7.9,34-12.2c3.5-0.9,4-1,7.8-1.6  c1.7-0.2,3-0.6,3-0.9c0-0.6-17.5,2.1-22.5,3.5c-14.9,4-30.9,12.3-41.8,21.7c-1.8,1.5-5.7,5.5-8.8,8.8l-5.5,6l5.6-4.1  c3.1-2.3,5.9-4.1,6.3-4.1s1-0.4,1.2-0.8c0.2-0.4,0.2-0.1,0,0.6c-0.4,1.7,0.1,1.8,3,0.3c2.3-1.2,4.2-1.7,3.3-0.9  c-0.3,0.3-2.8,1.7-5.6,3.2c-2.8,1.5-5.3,2.9-5.6,3.2c-0.8,0.7,5.5-1.6,9.4-3.5c5.8-2.8,28.7-9.4,37.6-10.8c1.2-0.2,3.7-0.7,5.5-1.2  c2.4-0.6,3.3-0.7,3.3-0.1c0,0.6,0.1,0.6,0.5,0c0.3-0.4,1.5-0.9,2.7-1.1c19.7-3,27.9-3.3,59-2.4c35.4,1,36.5,1.1,36.5,2.4  c0,0.9,0.1,0.9,0.8-0.1c0.7-1,1.3-1,5.1-0.5c5,0.7,5.8,1.2,3.1,1.7c-2.1,0.4-3.1,1.9-2.1,3.1c1.7,2-1.2,2-21.7,0.1  c-8.3-0.8-14.9-1.6-14.7-1.8c0.2-0.2-4.6-0.6-10.7-0.9l-11.1-0.5l-0.1-2c-0.1-1.9-0.1-1.9-0.4-0.2s-0.4,1.7-4.3,1.7  c-3.4,0-4.1-0.2-4.1-1.1c0-0.7-0.2-0.8-0.4-0.3c-0.2,0.6-2.1,0.8-6.4,0.8c-8.7,0-27,1.7-34.8,3.2c-7.3,1.4-17.3,3.7-19.3,4.4  c-0.7,0.3-4.3,1.4-7.9,2.5c-7.1,2.2-17.1,6.9-22.9,10.9c-4.7,3.2-5.4,4.4-0.9,1.5c5.1-3.3,12.5-6.9,18.7-9  c6.7-2.4,25.1-6.7,26.7-6.3c0.6,0.2,1.2,0,1.2-0.4s1-0.5,2.5-0.3c1.4,0.2,2.4,0.1,2.2-0.2c-0.2-0.3,0.5-0.6,1.6-0.6  c1.3,0,1.9,0.3,1.9,1c0,0.8-0.3,0.8-1.2,0.3c-0.7-0.4-1.3-0.4-1.4-0.1c-0.1,0.3-1.2,0.8-2.4,1c-3.8,0.6-16,3.6-18.3,4.5  c-1.2,0.5-5.5,2-9.6,3.5c-4.1,1.4-7.9,3-8.5,3.5s0.7,0.2,3-0.7c9.4-3.6,27.2-7.8,39.2-9.1c17.4-2,58.6-2.4,91.3-1.1  c11.8,0.5,13.8,0.7,13.8,1.6c0,0.8,0.1,0.8,0.8-0.1c0.6-0.9,1.3-1,3.5-0.7c3.1,0.5,3.2,0.8,1.3,2.4l-1.4,1.2l1.4,0.9  c2.1,1.4,1.7,2.6-1,3.1c-2.3,0.4-22.6-0.1-26.4-0.7c-3.6-0.5-41.1-1.6-56.5-1.5c-11.7,0-17.5,0.3-24.4,1.3  c-11.8,1.6-14.2,2.1-13.4,2.6c0.4,0.2,1.7,0.2,2.8-0.2c1.2-0.3,3.2-0.6,4.4-0.5s2.5-0.1,2.9-0.3c0.8-0.5,4.8-0.5,25.5-0.5  c8.5,0,15.7-0.2,16-0.5s1.4-0.2,2.6,0.2c1.4,0.6,6.2,0.8,16.5,0.9c14.8,0.1,51.4,1.1,61,1.7c6,0.4,8.3,1.4,8.3,3.7  c0,0.8,0.3,2.2,0.6,3.1c0.4,1.2,0.4,1.8-0.4,2.4c-0.7,0.6-0.9,1.4-0.6,2.7l0.4,1.9L508,555c-20.6-0.8-39.7-1-72.9-0.9  c-16.9,0-31.4,0.1-32.3,0c-0.9,0-3.6,0-6,0s-12.6,0-22.5,0c-10-0.1-18.8,0.1-19.6,0.4c-1.3,0.5,26.3,1.5,33.6,1.2  c1.2,0,11.9,0,23.7,0.2l21.5,0.2l-14.2,0.4c-7.8,0.2-25.5,0.5-39.4,0.5l-25.1,0.1l-2.2,4.7c-3.7,7.9-9.4,12.4-20.3,15.6  C325.3,580.1,306,580.4,299.5,578.6L299.5,578.6z" name="Layer %{number}" zoom="1" data-layer-id="1847369701393" style="fill: url(&quot;#SVGID_1_&quot;); fill-opacity: 0;"></path><path class="st1" d="M218.7,177.9c-0.2-0.4-0.3-0.8-0.1-1s0.5,0.1,0.7,0.7C219.7,178.7,219.3,178.9,218.7,177.9z M231.1,181.7  c-0.9-0.6-1.4-1.3-1.2-1.5s1,0.2,1.9,0.9c0.9,0.6,1.4,1.3,1.2,1.5C232.8,182.7,231.9,182.4,231.1,181.7z M230.6,194.1  c-4.1-4.4-8.4-10-10.3-13.7c-1.1-2.2-0.1-1,3.8,4.4c1.9,2.6,5.2,6.8,7.4,9.3s3.9,4.6,3.8,4.6C235.2,198.8,233,196.7,230.6,194.1z   M241.4,197c-4.9-4.1-10.6-10.1-14.8-15.6c-3.7-4.8-8.2-13-8.1-14.7c0-0.6,0.4-0.1,0.9,1.2c2.4,6.6,7.1,12.8,17.9,23.9  c4.5,4.6,8.1,8.4,8,8.4C245.1,200,243.4,198.7,241.4,197z M246.6,200.7c-0.2-0.4,0-0.5,0.6-0.2c1.1,0.4,1.3,0.9,0.4,0.9  C247.2,201.3,246.8,201,246.6,200.7z M228.5,200.2c-8.1-5.7-16.2-15.2-21.9-25.3c-1.2-2.2-2.1-4.1-2-4.3c0.2-0.2,1.1,1.1,2,2.9  c4.1,7.5,15.7,20.9,23.8,27.4C234.3,204,233.5,203.7,228.5,200.2z M348.5,212.7c6.7-9.3,13-14.9,22.1-19.3c7.8-3.8,14-5.1,23.1-4.8  l3.5,0.1l-4.6,0.8c-13,2.4-29,10.4-40.4,20.3C349.8,212,348.1,213.2,348.5,212.7z M393.2,216.7c0.6-0.2,1.6-0.2,2.2,0  s0.1,0.3-1.1,0.3S392.6,216.9,393.2,216.7z M334.9,251.6c1.7-3,10.7-12.1,16-16.2c5.5-4.2,15.9-10.3,20.2-11.9  c2.1-0.8,3.5-1.1,3.2-0.8s-2,1.1-3.6,1.7c-3.5,1.3-12.2,6.7-18.7,11.5c-5,3.7-11.7,10.2-15.9,15.1  C333.6,254.1,333.6,254.1,334.9,251.6z M492.5,256.6c0.6-0.2,1.6-0.2,2.2,0s0.1,0.3-1.1,0.3C492.4,256.8,491.9,256.7,492.5,256.6z   M486.7,256.3c0-0.3,0.7-0.5,1.6-0.5s1.6,0.1,1.6,0.2s-0.7,0.4-1.6,0.5C487.4,256.7,486.7,256.6,486.7,256.3z M472.7,258.2  c0.5-0.3,1.4-0.6,1.9-0.6c0.8,0,0.8,0.1,0,0.6c-0.5,0.3-1.4,0.6-1.9,0.6C471.9,258.9,471.9,258.8,472.7,258.2z M468.6,259.5  c0.7-0.3,1.7-0.5,2.2-0.5c0.6,0,0.5,0.2-0.3,0.5c-0.7,0.3-1.7,0.5-2.2,0.5C467.7,260.1,467.8,259.9,468.6,259.5z M489.2,265.8  l-6.6-0.4l6.3-0.1c3.5,0,7,0.2,7.9,0.4C498.6,266.4,499.1,266.4,489.2,265.8L489.2,265.8z M216.5,268.9c0-0.3,0.6-0.6,1.3-0.6  s1.3,0.1,1.3,0.2s-0.6,0.4-1.3,0.6C217.1,269.4,216.5,269.3,216.5,268.9z M213.5,269.2c0.6-0.2,1.5-0.1,1.9,0  c0.4,0.2-0.1,0.3-1.1,0.3C213.3,269.5,212.9,269.4,213.5,269.2L213.5,269.2z M473.3,269.8c0.5-0.2,1-0.2,1.2,0.1  c0.2,0.2-0.2,0.4-0.8,0.3C472.9,270.2,472.8,270,473.3,269.8L473.3,269.8z M209.1,269.8c0.6-0.2,1.6-0.2,2.2,0  c0.6,0.2,0.1,0.3-1.1,0.3C209,270.1,208.5,270,209.1,269.8z M197.1,270.4c2-0.1,5.1-0.1,7,0c1.8,0.1,0.2,0.2-3.7,0.2  C196.6,270.7,195.1,270.6,197.1,270.4z M320,270.7c0.4-0.8,9.9-15.3,14.7-22.6c3.2-4.9,12.9-14.8,18.5-19c6.2-4.6,16.7-10,22.4-11.5  c5.6-1.4,13.3-2.2,13.8-1.3c0.2,0.4-1.2,0.8-3.7,1c-13.6,1.4-33.1,12.5-46,26.2c-2.3,2.5-4.7,5.4-5.3,6.6c-0.6,1.1-2.4,3.9-4,6.2  c-1.6,2.3-4.6,6.6-6.6,9.6s-3.8,5.5-4,5.5C319.7,271.5,319.8,271.2,320,270.7z M491.7,274c-1.2-0.3-5.3-0.7-9.2-1  c-3.8-0.2-7.7-0.5-8.5-0.6c-0.9-0.1-2.5-0.2-3.6-0.2s-2.1-0.3-2.1-0.5c0-0.6,18.6,0.2,22.1,1c1.6,0.4,3.8,0.8,5,1s2.3,0.5,2.5,0.7  C498.4,274.9,494.1,274.6,491.7,274z M337.4,275.5c0-0.3,1.2-2.3,2.8-4.4c6-8.3,15.1-13.4,27.4-15.4c4.1-0.7,10.3-1.4,13.8-1.6  c8-0.5,14.4-2.2,21.6-5.7c5.3-2.6,13.1-8.5,16.5-12.5c3.9-4.5,7.5-11.1,8.5-14.9l0.6-2.4l0.1,2.4c0,1.3-0.7,4.3-1.5,6.6  c-6.9,18.5-24.1,30.4-47.4,32.8c-7.3,0.7-17.1,2.3-20.3,3.2c-3.6,1-12.2,5.3-15.1,7.5c-1,0.8-3,2.2-4.3,3.2  C338.4,275.3,337.4,275.9,337.4,275.5z M480.5,280.6c1-0.1,2.4-0.1,3.2,0c0.8,0.2,0,0.3-1.8,0.3  C480.2,280.8,479.5,280.7,480.5,280.6z M423.1,284.5c1.7-0.4,6.4-1.8,10.4-3c12.1-3.7,22.7-6.1,30-6.8c15-1.4,24.8-0.6,34.3,2.9  c4.9,1.8,8.1,4,3.5,2.5c-5.8-2-15.1-3.1-26.8-3.1c-6.4,0-13.3,0.2-15.2,0.4c-3.9,0.5-23.6,4.9-31,6.8c-2.6,0.7-5.6,1.2-6.6,1.2  C420.2,285.3,420.4,285.2,423.1,284.5z M417.5,285.7c0.4-0.2,1.1-0.2,1.6,0c0.4,0.2,0.1,0.3-0.8,0.3S417.1,285.8,417.5,285.7z   M480.2,256.6c-0.2-0.2-0.8-0.2-1.2-0.1c-0.5,0.2-0.4,0.4,0.4,0.4C480,257,480.4,256.8,480.2,256.6L480.2,256.6z M415.3,278.7  c-0.4-0.2-1.1-0.2-1.6,0c-0.4,0.2-0.1,0.3,0.8,0.3S415.8,278.9,415.3,278.7L415.3,278.7z M402.8,285c-8.8-1.5-15.8-5.2-23.1-12.2  l-4.1-3.9l3.5,2c6.7,3.8,11.7,5.8,17.4,7c7.3,1.5,11.2,1.5,16.9,0c5.7-1.5,7.2-2.2,19.4-8.1c10.7-5.2,20.3-9,26.6-10.6  c2.2-0.6,4.5-1.2,5-1.4c0.5-0.2,1.4-0.4,1.9-0.5c10-1.4,18.2-1.8,18.7-1c0.2,0.4-0.1,0.7-0.7,0.7s-2.5,0.3-4.1,0.5  c-1.6,0.3-2.8,0.2-2.7,0c1.2-1.9-15.7,2.1-27,6.4c-7.4,2.8-26.5,12.1-26.5,12.8c0,0.6,3.2-0.7,14.5-5.7c16.9-7.5,22.9-9.9,26.6-10.5  c1.6-0.3,1.3,0-1.3,0.9c-9,3.4-18.1,7.1-18.6,7.6c-0.6,0.6,1.6,0,10.3-2.6c11-3.3,20.3-5,30-5.4c5.3-0.2,10.4-0.1,11.4,0.2  c1.2,0.4-0.5,0.5-5.1,0.5c-7.6,0-15.4,0.5-14.9,0.9c0.4,0.4-10.6,3.8-12.5,3.8c-0.9,0-2.2,0.4-2.8,1c-1.1,0.9-1.1,0.9,0.8,0.3  c1.1-0.4,2.5-0.5,3-0.3s3.8-0.1,7.4-0.6c3.5-0.5,6.9-0.9,7.4-0.7c0.6,0.1-0.7,0.4-2.8,0.7c-6.1,0.8-17.6,3.3-20,4.4  c-2.2,1-2.2,1-0.3,0.7c1-0.2,3.9-0.5,6.3-0.7c7.1-0.6,4.1,0.7-4.1,1.8c-5.6,0.8-10.9,2.2-22.8,6.1c-8.5,2.8-16.6,5.2-17.9,5.5  c-1.3,0.2-2.4,0.6-2.4,1C416.4,286.2,408.2,286,402.8,285z M427.2,288.3c1.9-0.5,3.7-0.7,4-0.5s0.5,0,0.5-0.4s0.5-0.6,1.3-0.4  c0.7,0.2,1.3,0.1,1.3-0.2c0-0.3,0.2-0.5,0.5-0.4s1.9-0.3,3.6-0.9c3-1,15.3-3.8,19.9-4.5c1.2-0.2,6.2-0.5,11.1-0.6  c4.9-0.2,7.8-0.2,6.4,0c-13.6,1.5-20.3,2.5-28,4.4c-5,1.2-9.3,2.1-9.6,1.9c-0.3-0.2-0.6-0.1-0.7,0.3c-0.2,0.7-9.2,2.6-11.7,2.5  C424.3,289.2,424.8,288.9,427.2,288.3L427.2,288.3z M421,289.4c0.6-0.2,1.5-0.1,1.9,0c0.4,0.2-0.1,0.3-1.1,0.3  C420.8,289.8,420.4,289.6,421,289.4L421,289.4z M340.4,291.3c0.5-0.2,1-0.2,1.2,0.1c0.2,0.2-0.2,0.4-0.8,0.3  C340,291.7,339.9,291.6,340.4,291.3L340.4,291.3z M362.5,292c0.4-0.2,1.1-0.2,1.6,0c0.4,0.2,0.1,0.3-0.8,0.3S362.1,292.2,362.5,292z   M388.6,301.9c-0.5-0.3-0.7-0.6-0.3-0.6c0.3,0,1.1,0.3,1.6,0.6c0.5,0.3,0.7,0.6,0.3,0.6S389.1,302.2,388.6,301.9z M215.3,313  c0-0.2,0.6-0.6,1.3-1s1.3-0.5,1.3-0.4c0,0.2-0.6,0.6-1.3,1C215.8,313,215.3,313.2,215.3,313z M394.8,331.2c-0.8-1-0.8-1,0.2-0.2  c0.6,0.5,1.1,1,1.1,1.1C396.2,332.6,395.7,332.2,394.8,331.2z M196.3,331.3c1.2-1.2,2.3-2.2,2.5-2.2s-0.6,1-1.8,2.2  s-2.3,2.2-2.5,2.2S195.1,332.5,196.3,331.3z M192.3,332.6c3.7-4.6,14.6-14.9,17.5-16.6c1.5-0.9,2.1-1.1,1.7-0.5  c-0.4,0.5-1.4,1.2-2.1,1.4c-0.8,0.2-1.1,0.8-0.9,1.3c0.2,0.6,0.1,0.8-0.3,0.5c-0.4-0.2-1.8,0.7-3.2,2.2c-1.4,1.4-2.5,2.5-2.5,2.3  s-2.9,2.6-6.4,6.2S190.9,334.3,192.3,332.6z M185.3,337.8c3.6-6.1,9.5-13.3,10.5-12.8c0.3,0.2,0.5,0,0.4-0.5s0.2-0.8,0.7-0.7  c0.5,0.1,0.7-0.1,0.5-0.4c-1-1.6,13.1-11.6,20.6-14.6c6.1-2.4,22.7-6.3,19.5-4.5c-0.5,0.3-2.2,0.7-3.8,1c-1.6,0.2-5.2,1.4-8,2.7  c-2.9,1.2-5.5,2.1-5.9,1.8c-0.4-0.2-0.7,0.1-0.7,0.7c0,0.7-0.2,0.8-0.4,0.3c-0.2-0.6-1.6-0.1-5,1.7c-6.3,3.4-11.2,7.1-16.1,12  c-2.2,2.3-3.7,3.6-3.2,3s0.7-1.3,0.5-1.5s-1.1,0.8-1.9,2.1c-0.9,1.4-2,2.9-2.4,3.4c-0.5,0.5-1.8,2.2-2.9,3.9c-1.1,1.7-2.2,3-2.4,3  C185,338.6,185,338.2,185.3,337.8L185.3,337.8z M188.4,345.4c0.2-0.6,0.6-1,0.8-0.8s0,0.7-0.4,1.1  C188.1,346.3,188.1,346.3,188.4,345.4z M417.3,347.3l-1.2-1.4l1.4,1.2c1.3,1.1,1.7,1.6,1.2,1.6C418.6,348.7,418,348.1,417.3,347.3z   M417.3,354.9c-0.4-0.8-3-4.2-6-7.7c-8.2-9.7-9.4-11.3-3.8-5.6c5,5.2,11.4,13.7,10.7,14.3C418.1,356.2,417.6,355.7,417.3,354.9z   M343.1,399.6c0-0.7,0.2-0.9,0.4-0.4c0.2,0.5,0.2,1-0.1,1.2C343.2,400.6,343.1,400.3,343.1,399.6L343.1,399.6z M448.2,422.7  c-0.8-2.3-0.6-2.4,0.8-0.4c0.6,0.9,0.8,1.7,0.4,1.9C449.1,424.5,448.5,423.8,448.2,422.7z M282.3,425.5c0-0.4,0.4-1.1,0.9-1.5  c1.7-1.4,5.3-8.1,6.8-12.8c2-6,3.3-19.7,2.2-23.5c-0.4-1.3-0.3-1.6,0.1-1.2s1,3.2,1.4,6.4c1.4,11.2-1.9,22.8-8.6,30.2  C283.7,424.8,282.4,425.9,282.3,425.5z M178.8,427.4c0.2-0.6,0.1-0.8-0.2-0.6c-0.3,0.2-0.6,0.7-0.6,1  C177.9,428.7,178.4,428.5,178.8,427.4z M177.3,429c0-1.7,1.3-3.4,2.1-2.7c0.2,0.2,0.4-0.1,0.4-0.7s0.3-0.9,0.6-0.7  c0.3,0.2,0.6,0,0.6-0.5s1.2-2,2.6-3.4c1.9-1.8,2.3-2,1.4-0.8c-0.7,0.9-1.4,1.7-1.7,1.7s-0.5,0.7-0.5,1.4c0,1-0.2,1.2-0.6,0.6  c-0.4-0.6-0.6-0.5-0.9,0.6c-0.2,0.8-1.2,2.5-2.3,3.7l-1.9,2.2L177.3,429L177.3,429z M454.3,438.7c-0.8-1-0.8-1,0.2-0.2  c1.1,0.8,1.4,1.3,0.9,1.3C455.3,439.8,454.8,439.3,454.3,438.7z M257.4,439.1c3.1-1.8,7.1-4.3,8.8-5.6c4.1-3.1,10.4-8.9,10.4-9.6  c0-0.3-2.2,1-4.9,2.9c-3,2.1-8,4.6-12.8,6.6c-10.9,4.4-14,4.8-5.8,0.8c3.6-1.7,8.5-4.5,10.9-6.1c4-2.7,10.9-9.1,12.1-11.2  c0.4-0.7-0.9-1.5-5.3-3.4c-10.8-4.7-23.4-7.2-35.6-7.2c-4.5,0-9.2,0.3-10.4,0.7c-3.1,0.9-3.7,0.8-2-0.4c7.1-5,26.9-6.5,40.7-3.1  c5.5,1.4,12.6,4.3,17.2,7.2c1.8,1.1,1.8,1.1,3.6-1c2-2.3,2.1-2.2,1.3,1.3c-0.3,1.4-0.3,2.2,0,2s0.6-0.8,0.6-1.3s0.2-0.9,0.5-0.9  s0.9-0.6,1.3-1.4c1.6-3.1-0.1,4.3-1.8,8.1c-3.7,8.1-8.4,12.7-18.7,18.3c-4.5,2.5-14.2,6.7-15.3,6.7  C251.9,442.3,254.2,440.9,257.4,439.1z M456.9,442.2c-0.9-1.3-1.1-1.7-0.4-1.2c1,0.8,2.6,3.2,2.1,3.2  C458.5,444.2,457.8,443.3,456.9,442.2z M320.9,444.3c0-0.3,0.3-0.8,0.6-1c0.4-0.2,0.5,0,0.2,0.6C321.4,445,320.9,445.2,320.9,444.3z   M282.3,445.2c0-0.2,0.6-0.6,1.3-1c0.7-0.4,1.3-0.5,1.3-0.4c0,0.2-0.6,0.6-1.3,1S282.3,445.4,282.3,445.2z M459.4,445.7  c-0.8-1-0.8-1,0.2-0.2c0.6,0.5,1.1,1,1.1,1.1C460.7,447.1,460.2,446.7,459.4,445.7L459.4,445.7z M207.5,454.6c0.4-0.2,1.1-0.2,1.6,0  c0.4,0.2,0.1,0.3-0.8,0.3S207.1,454.8,207.5,454.6z M393.3,456.3c0.7-0.3,1.8-0.5,2.5-0.5c1,0,1,0.1-0.3,0.5  C393.4,457,391.7,457,393.3,456.3z M240.6,187.4c-0.4-0.7-0.8-1.3-1-1.3s0,0.6,0.4,1.3s0.8,1.3,1,1.3  C241.1,188.7,240.9,188.1,240.6,187.4z M245,192.2c0-0.1-0.8-0.9-1.7-1.7l-1.7-1.5l1.5,1.7C244.5,192.3,245,192.7,245,192.2z   M243.1,192.4c-1.1-1.1-2.2-1.8-2.3-1.7c-0.3,0.3,3.4,3.6,4,3.6C245,194.4,244.2,193.5,243.1,192.4z M250.4,198.1  c-0.2-0.4-0.7-0.6-1.1-0.6c-0.5,0-0.4,0.3,0.2,0.6C250.6,198.9,250.9,198.9,250.4,198.1z M380.2,208.8c3.2-0.8,5.9-1.7,5.9-2  c0-0.8-1.8-0.6-6.8,0.8c-2.6,0.7-4.9,1.1-5.3,0.9c-0.3-0.2-0.6-0.1-0.6,0.2s-0.8,0.8-1.7,1c-2,0.5-11.6,4.8-12.5,5.5  c-0.3,0.3,2.9-0.7,7.3-2.2C370.8,211.6,377,209.6,380.2,208.8z M222.5,258.9c2.5-0.6,2.5-0.6-0.6-0.3c-1.7,0.2-4.2,0.5-5.4,0.6  s-2.4,0.3-2.5,0.3c-0.7,0.3-1.7,0.4-4.1,0.5c-1.6,0.1-2.2,0.3-1.7,0.6C209,261.2,217.8,260.1,222.5,258.9L222.5,258.9z M264.1,262.2  c-0.8-0.2-2.2-0.2-3.2,0c-1,0.1-0.3,0.3,1.4,0.3C264.1,262.5,264.9,262.4,264.1,262.2z M236.8,265.5c8.4-2.2,14.1-3.3,19.3-3.7  c1.9-0.1,1-0.2-2.2-0.3c-4.1-0.1-7.3,0.4-13.3,1.8c-4.3,1-8.6,2-9.4,2.2c-0.8,0.2-2.1,0.7-2.8,1.1s-1.4,0.7-1.5,0.6  c-0.7-0.5-2.7,0-2.4,0.6C224.9,268.6,226.2,268.3,236.8,265.5z M337.8,293.3c-0.2-0.2-0.8-0.2-1.2-0.1c-0.5,0.2-0.4,0.4,0.4,0.4  C337.7,293.6,338,293.5,337.8,293.3L337.8,293.3z M352.4,308.4c-0.6-0.2-1.6-0.2-2.2,0s-0.1,0.3,1.1,0.3  C352.5,308.7,353,308.6,352.4,308.4z M354.1,312.3c-4.8-1.1-6.5-1.1-3.2,0c1.4,0.5,3.5,0.8,4.7,0.8  C357.5,313.2,357.1,313,354.1,312.3L354.1,312.3z M360.9,313.5c-0.4-0.2-1.3-0.2-1.9,0s-0.3,0.3,0.8,0.3  C360.9,313.8,361.4,313.7,360.9,313.5L360.9,313.5z M371.5,317.1c-0.5-0.3-1.2-0.6-1.6-0.6c-0.3,0-0.2,0.3,0.3,0.6  c0.5,0.3,1.2,0.6,1.6,0.6C372.2,317.7,372,317.4,371.5,317.1L371.5,317.1z M312.6,412.9c0-2.3-0.1-2.9-0.6-2.2  c-0.3,0.5-0.6,2.7-0.6,4.7C311.6,420.1,312.5,417.9,312.6,412.9z M308.1,414.5c0-2.5-0.1-2.4-0.6,1.2c-0.3,2.2-0.7,4.4-0.8,4.8  c-0.2,0.4-0.1,1,0.1,1.2C307.5,422.4,308.2,418.1,308.1,414.5z M291.7,422.4c-0.2-0.2-0.5,0.2-0.8,0.8c-0.3,0.9-0.3,1,0.4,0.4  C291.7,423.1,291.9,422.6,291.7,422.4z M307.4,427.7c-0.2-0.5-0.4-0.4-0.4,0.4c0,0.7,0.1,1,0.3,0.8S307.6,428.1,307.4,427.7  L307.4,427.7z M315.2,457.3c0-0.2,1-2,2.2-4s2.2-4.1,2.2-4.5c0-0.5,0.3-0.8,0.7-0.8c0.4,0,0.5-0.6,0.3-1.4c-0.3-1-0.2-1.2,0.2-0.6  c0.4,0.6,0.9,0,1.7-2.4c0.6-1.8,0.9-3.7,0.7-4.2c-0.2-0.5-0.2-0.9,0.1-0.9c0.6,0,1-8.8,1-20.2c0-10.2-0.8-14.3-4.3-21.9  c-2.2-4.8-7.7-13.3-9.5-14.8c-0.6-0.5,0.3,1.2,2,3.9c6.2,9.6,8.7,19.4,8.2,32.7c-0.2,6.8-0.7,9.8-2,14.2c-1.8,6.1-5.1,13.1-7.3,15.6  l-1.4,1.6l1.4-2.1c3.5-5.2,6.6-16.4,7.3-25.8c0.5-7.8-0.5-15.6-3.1-23.1c-3.2-9.4-7-15.1-17.3-26.1c-11.9-12.7-15.8-18.2-20.9-29.6  c-1.5-3.3,0,2.1,1.7,6.3c2.2,5.4,5.9,10.7,13.1,19.1c7,8.1,12.3,15.3,14.7,20.1c5.4,10.9,7.5,23.5,5.7,35.7  c-0.7,4.5-3,13.3-3.5,12.8c-0.1-0.1,0.2-1.7,0.7-3.4c1.2-3.8,2.1-13.7,1.3-13.4c-0.3,0.1-1.3,2.4-2.1,5.1c-2.1,6.6-5.4,11.9-10.5,17  c-3.7,3.7-10.4,8.7-11.6,8.7c-0.2,0,1.3-1.2,3.3-2.7c4.7-3.5,11.2-10.4,12.9-13.8c2-3.9,4.3-11.3,3.6-11.7c-0.7-0.4-0.6-0.7-3.1,4.5  c-2,4.1-9.2,12.8-9.9,12.1c-0.2-0.2,1.1-1.9,2.9-3.8c3.5-3.8,6.4-9.5,7.6-14.5c0.4-1.7,0.9-3.7,1.1-4.3c0.2-0.7,0.1-1-0.3-0.8  c-0.3,0.2-1.1,2.1-1.7,4.3c-2.9,10.4-9.2,17.1-22.5,23.8c-9.2,4.7-11.5,5.3-5.3,1.4c4.2-2.6,10.6-8.7,15.2-14.7  c3.7-4.7,3.8-5.4,0.4-2.1c-2.5,2.5-3.1,2.7-2.5,1.1c0.4-0.9,0.3-0.9-0.9,0.1c-1.5,1.3-1.8,2.8-0.3,1.6c0.5-0.4,0.9-0.6,0.9-0.3  c0,0.7-3.7,5.9-4.5,6.4c-0.4,0.2,0-0.7,1-2c2.6-3.8,2-3.9-1.5-0.3c-1.7,1.8-3.6,3.2-4.1,3.2s-1.1,0.3-1.4,0.7  c-0.3,0.5-0.1,0.6,0.8,0.3c1.1-0.4,1.1-0.4-0.1,0.6c-1.8,1.5-11.8,7.3-12.1,7.1c-0.1-0.1,2.3-1.8,5.4-3.7s5.4-3.6,5.1-3.8  c-0.3-0.2,0.8-1.2,2.3-2.2s4.5-4,6.5-6.6c4.9-6.4,5.4-7.4,1.3-2.9c-5,5.5-6,6.3-12.9,9.9c-3.5,1.8-6.2,3.1-6,3  c0.2-0.2,2.4-1.9,5-3.9c6.3-4.7,11.5-9.8,15.6-15.4c5.5-7.4,7.8-14.1,7.8-23.3c0-8.7-2.9-17.5-9.8-29.5c-7.3-12.8-8.5-15-10-19.3  c-0.9-2.5-1.9-7-2.2-9.8c-1.2-10.4-1.5-12.2-2.6-14.4c-1.7-3.5-7.7-8.7-12.5-10.9c-4-1.9-4.7-2-11.9-2c-5.6,0-8.4,0.3-10.6,1.1  c-8.1,2.9-16.7,8.6-25.1,16.5c-3,2.8-4.4,4-3.2,2.6c4.7-5.5,7.8-8.4,13.9-13c3.5-2.6,6.2-4.8,6.1-4.9c-0.9-0.9-16.9,9.6-23.7,15.6  c-5.3,4.7-13.9,15.2-17.2,20.9c-1.2,2.1-2.5,4.3-3,4.9c-1,1.4,1.3-4.2,3.3-8c0.8-1.6,2.1-4.2,2.8-5.8c2.7-6,13-16.9,23.1-24.5  c4.9-3.6,13.3-7.9,19.3-9.7c6.6-2,20.4-2.1,26.5-0.1c2.2,0.7,4.2,1.2,4.3,1.1c0.5-0.5-8.1-6.4-12.1-8.3c-9.3-4.5-21-5.2-35.2-2.1  c-5.1,1.1-8.9,1.4-16.4,1.5c-11.1,0.1-16-0.9-23.9-4.9c-14.8-7.4-26.2-23-27.1-36.8L149,254l1.2,5.2c3.1,13.1,13.2,24.9,26.9,31.5  c10.9,5.3,23.5,6.4,37.6,3.3c4.3-0.9,9.7-1.9,11.8-2.1c4.3-0.4,14.2,0.6,18.6,1.9c8.4,2.5,17.6,8.7,23.7,16c4.4,5.3,3.8,5.9,6.7-6.5  c1.8-7.8,2.1-9.9,2.1-17.7v-8.9l-2.2-4.4c-2.2-4.4-2.3-4.4-6-5.6c-7.7-2.3-21.6-1.6-34.2,1.8c-15.2,4.1-20.3,4.9-33.4,5.2  c-7.9,0.2-12.5,0-12.5-0.4s3-0.6,7.6-0.5c4.2,0.1,7.6-0.1,7.6-0.3c0-0.3,0.9-0.5,1.9-0.5c1.1,0,3.1-0.3,4.6-0.6  c1.5-0.3,4.9-1.1,7.6-1.6c4.9-1,7-2.6,2.5-1.9l-2.4,0.3l2.5-0.9c1.4-0.5,4.8-1.5,7.6-2.3s6.2-1.8,7.6-2.3c2.9-1.1,16.6-4,18.8-4  c7.7,0,9.6,0.1,11.2,0.6c3.5,1,2-0.3-1.7-1.5c-8.3-2.5-15.8-2-38.5,2.6c-10.8,2.2-12,2.3-23.1,2.3c-9.5,0-12.8-0.3-17.7-1.4  c-8.5-1.9-10.8-2.7-6.3-2.2c1.9,0.2,4.1,0.5,4.7,0.7c1.7,0.4,17.1,0.3,18.9-0.1c0.8-0.2,2.1-0.4,2.9-0.6c2-0.4,4.9-1.1,13.6-3.2  c11.9-2.9,21.3-4.6,26.9-5.1c5.7-0.5,13.4,0.4,17.9,2c2.3,0.8,2.5,0.8,1.7,0c-1.7-1.7-8.8-4.9-14.7-6.7c-12-3.7-18.9-4.6-30.7-4.4  c-5.3,0.1-9.6,0.2-9.6,0.1c0-0.2,9.1-2.1,11.7-2.4c7.8-1,12.2-1.1,17.8-0.3c23.4,2.9,40.5,15.6,46.9,34.5c1.5,4.5,1.7,6,1.6,13  c0,5.7-0.5,9.7-1.5,14.2c-0.8,3.5-1.5,7-1.7,7.9c-0.2,1.4-0.2,1.4,0.4,0.3c0.3-0.7,1.7-4.1,3.1-7.6s4.3-10.9,6.6-16.5  c5-12.2,6-15.6,6.8-22.2c1.1-9.6-1.1-18.7-6.2-26.1c-2.7-3.9-10-10-15.3-12.7c-5.2-2.6-16.1-5.9-22.5-6.7c-14.8-1.9-24.9-4.5-30.4-8  c-4.1-2.6-9.2-6.4-9.2-7c0-0.2,2.1,0.7,4.6,2c7.8,4.2,15,6.1,29.1,7.9c15,1.9,26.6,4.4,32,7c2.1,1,3.9,1.7,3.9,1.5  c0-1.1-15.9-9.7-23.5-12.8c-4.9-1.9-9.4-4.3-9.4-5.1c0-0.4-0.3-0.5-0.7-0.2c-0.4,0.2-0.9,0.2-1.1-0.1c-0.5-0.7-9.2-6.2-9.4-6  c-0.1,0.1-0.4,0-0.6-0.1c-0.3-0.1-0.1-0.2,0.3-0.1c1.4,0.3,0.9-0.3-1.5-1.9c-4.2-2.9-14.2-12.6-16.8-16.4c-3.1-4.5-4.4-7.5-6.2-14  c-1.3-4.9-1.4-7.1-0.2-3.7c2.3,6.2,5.4,12.6,7.3,15.3c2.4,3.2,2.9,4.6,1.3,3.2c-2.2-1.8-0.7,0.6,1.9,3.2c1.8,1.8,2.7,2.4,2.4,1.6  c-0.2-0.7,0.6-0.1,1.9,1.4c1.3,1.5,3,3,3.7,3.4c0.8,0.4,0-0.6-1.6-2.1c-1.7-1.6-3-3.1-3-3.4c0-0.3-0.8-1.4-1.7-2.5  c-2-2.2-3.9-4.9-5.2-7.4c-0.5-1-1.1-1.7-1.5-1.7c-0.3,0-0.4-0.6-0.2-1.4c0.3-1,0.2-1.2-0.2-0.6c-0.4,0.6-0.7,0.6-1,0.2  c-0.2-0.4-0.2-0.7,0.2-0.7s0.1-1.6-0.6-3.5c-0.7-1.9-1.2-4-1.2-4.6s0.5,0.2,0.9,1.7c1.2,4,4.3,10.3,5.5,11.3  c0.7,0.6,0.4-0.6-0.9-4.1c-2.5-6.7-2.3-7.9,0.3-2.3c4.3,9.2,12,19,20.3,25.9c4.7,3.9,13.6,9.7,13.6,8.9c0-0.2-1.6-1.4-3.6-2.7  c-5-3.3-13.6-10.6-15.8-13.4c-1.8-2.3-3.9-5.3-4.9-7c-0.3-0.4,2.6,2.3,6.4,6.1c7.1,7.2,13.9,12.1,25.5,18.5  c19,10.5,31,21.6,37.7,34.9c3.8,7.5,4.9,12.9,4.5,22c-0.5,10.7-3,19-11.5,37.9c-1.9,4.3-3.4,8-3.2,8.2c0.5,0.5,0.7,0.2,5.1-9.1  c6.9-14.4,7.8-16.6,11.8-27.5c4.6-12.5,7-18,11.4-25.2c9.1-15.2,22-27.6,34.9-33.6c2.4-1.1,5-2,5.9-2.1c0.9,0,1.6-0.3,1.6-0.6  s0.6-0.4,1.3-0.2c0.7,0.2,1.3,0,1.3-0.4s0.3-0.3,0.6,0.2c0.5,0.7,0.6,0.8,0.6,0.1c0-0.6,0.5-0.7,1.3-0.5c0.9,0.2,1.3,0,1.3-0.7  c0-0.9,0.1-0.9,0.6-0.1c0.4,0.7,0.6,0.7,0.6,0.1c0-0.5,0.6-0.7,1.6-0.5c0.9,0.2,1.6,0.1,1.6-0.2c0-0.2,1.7-0.5,3.8-0.6  c2.4-0.1,3.8,0.1,3.8,0.5s2.1,0.7,5.7,0.7s5.7,0.2,5.7,0.7c0,0.4,0.3,0.5,0.6,0.3c0.8-0.5,8,1.4,10.1,2.6c1.2,0.7,1.3,0.8,0.3,0.6  c-7.3-1.8-16.6-2.1-24.7-0.7c-7.3,1.3-8.9,1.8-15.8,5.2c-12.1,6-23.8,16.4-34.6,30.9c-3.6,4.8-14.5,21.8-16.4,25.6  c-0.8,1.6-3.9,7.1-6.8,12.3c-8.1,14.3-12.5,23.8-14.1,30.3c-1.7,7.4-1.8,17.1-0.1,23.4l1.2,4.4v-7.9c0-11.8,2.1-19.3,9.6-35.6  c4-8.5,17.4-30.5,22.8-37.2c14.4-18,24.8-27,38.4-33.6c8.4-4,14.4-5.3,22.7-4.9c10.3,0.5,10.4,1.4,0.2,1.4c-8.5,0-9.3,0.1-14.9,2.1  c-13.1,4.5-22.5,11.2-33.5,23.8c-5.6,6.4-7.7,9.3-19.7,26.5c-3.6,5.2-8.1,11.6-10,14.2c-6.2,8.7-11.5,20.8-12.5,28.5  c-0.2,1.8-0.6,3.1-0.9,3c-0.5-0.3-0.3,2.4,0.5,5.3l0.6,2.2l0.1-1.9c0.1-1,0.1-2.8,0.1-3.8c0-1.7,0-1.7,0.4-0.4  c0.4,1.3,0.7,0.9,2.6-2.8c5-10.1,13.2-19.4,21.3-24c7.1-4.1,14.3-6.9,13.2-5.2c-0.3,0.5,0,0.6,1.1,0.4c0.8-0.2,2.4-0.4,3.4-0.5  c1.6,0,1.7-0.1,0.7-0.5c-1.1-0.4-1-0.5,0.6-0.8c1-0.2,2.2-0.1,2.7,0.3s0.8,0.4,0.8,0c0-0.3,1.4-0.6,3-0.5c1.7,0.1,4.5,0.2,6.4,0.2  c5.1,0.1,3.5,1.1-2.2,1.3c-6.2,0.2-11.7,1.5-16.9,3.8c-4,1.8-13,7.3-13,8c0,0.2,2.3-0.9,5.2-2.5c2.9-1.5,7.5-3.6,10.3-4.6  c4.9-1.7,5.5-1.8,16.8-1.8c8.7,0,12.9,0.3,16.4,1.1c4.7,1.1,13.6,4.2,13.2,4.6c-0.1,0.1-2.1-0.3-4.3-1c-6.8-2.1-15.4-3.2-24.7-3.2  c-9.7,0-10,0.1-17.3,2.4c-5.6,1.8-9.7,3.9-13,6.7c-1.6,1.4-1.7,1.6-0.4,0.8c6.5-3.9,18.1-6.7,29.8-7.2c8.4-0.3,9.3-0.3,9.3,0.7  c0,1.1,1,1.4,1.5,0.5c0.4-0.6,2.9-0.2,2.9,0.5c0,0.2,0.9,0.4,2.1,0.4c3,0.1,12.1,3,19.4,6.2c21.4,9.5,45.4,32.9,53.8,52.5  c1.6,3.6,1.1,3.8-0.7,0.2c-2.4-4.8-9.2-14.6-13.8-19.9c-8-9.4-23.6-22-32.8-26.7c-4.3-2.2-4-1.6,0.7,1.5c6.7,4.4,11.4,8.4,18.4,15.6  c12.8,13.1,19.8,24.3,23.9,37.9c3.1,10.5,2.6,10.9-1.8,1.6c-7.6-16.2-13.6-25-24.1-35.5c-10.8-10.8-22.8-18.2-37.7-23.3  c-6.7-2.3-16.6-4.2-22-4.2c-4.5,0-2.2,1.1,3.8,1.9c23.3,2.9,45.2,15.7,59.7,34.7c4,5.2,2.8,4.4-5.8-3.8c-3.9-3.7-9.1-8.3-11.6-10.2  c-14.6-10.9-32.9-18.4-47.7-19.6c-1.8-0.1-3.2,0-3,0.3s0.9,0.5,1.6,0.5c1.7,0,14.1,3,17.3,4.2c20.6,7.8,27.8,12,38.7,22.7l6.3,6.1  l-5.4-4.7c-7.8-6.9-14.8-11.9-21.2-15.2c-4.9-2.5-12-5.6-12.9-5.5c-0.2,0,2.3,1.4,5.4,3.1c5.9,3.1,11.3,6.6,11.9,7.6  c0.2,0.3-2.4-1.1-5.8-3.3c-17.7-11.1-37.2-15.1-51.2-10.5c-12.1,4-22.3,15.8-22.9,26.6c-0.4,6.6,1.8,10.7,12.5,23.6  c9.2,11,12.2,16,15.2,25.1c2.5,7.3,2.3,8.1-0.4,2.4c-1.8-3.8-8.9-15.2-9.4-15.2c-0.1,0,1.5,3.3,3.5,7.2c3.8,7.5,5.8,14.6,6.7,22.8  c0.2,2.3,0.6,4.1,0.8,4c0.2-0.1,3.7-1.8,7.7-3.8c8.4-4.2,14-5.8,24.3-6.9c10.1-1.1,20.4-0.1,27.6,2.7c2.8,1.1,5,2.2,5,2.6  s-0.4,0.5-0.9,0.3s-3.1-0.7-5.9-1.1c-13.8-2-43.2,3.4-55,10.2c-3.4,1.9-4,3.2-4,8.5c0,1-0.2,2.2-0.5,2.7c-0.3,0.4-0.6-3.6-0.7-8.9  c-0.2-14.1-1.4-20-5.9-29.2c-1.7-3.5-8.1-12.5-9.5-13.3c-0.3-0.2,0.8,1.7,2.4,4.3c7.6,11.8,11.1,25.1,10,38.3  c-0.3,3.8-0.6,5.1-1,4.3l-0.5-1.3l-0.1,1.3c0,0.7-0.2,2-0.4,2.8c-0.3,1.4-0.2,1.4,0.3,0.3c1.1-2.4,0.7-0.1-1,5.1  c-0.9,2.9-1.9,5.1-2.2,4.9c-0.3-0.2-0.3-1.8-0.1-3.7c0.2-1.9,0-3.9-0.3-4.6c-0.5-0.9-0.7-0.5-0.8,2c-0.1,1.7-0.1,3.5-0.1,3.9  s-0.2,0.6-0.5,0.4s-0.9,0.5-1.3,1.4c-1.4,3.4-4.6,9.4-6.5,12.2C320.5,451.2,315.2,457.8,315.2,457.3L315.2,457.3z M253.7,470.4  c0.5-0.2,1-0.2,1.2,0.1c0.2,0.2-0.2,0.4-0.8,0.3C253.4,470.7,253.2,470.6,253.7,470.4L253.7,470.4z M357.4,470.7  c0.4-0.4,0.9-0.6,1.1-0.4s-0.2,0.5-0.8,0.8C356.9,471.4,356.8,471.4,357.4,470.7L357.4,470.7z M236.1,470.9c0-0.3,0.6-0.4,1.3-0.2  c0.7,0.2,1.3,0.4,1.3,0.6c0,0.1-0.6,0.2-1.3,0.2C236.7,471.4,236.1,471.2,236.1,470.9z M186.6,471c0.4-0.2,1.1-0.2,1.6,0  c0.4,0.2,0.1,0.3-0.8,0.3S186.2,471.2,186.6,471z M182.8,471c0.4-0.2,1.1-0.2,1.6,0c0.4,0.2,0.1,0.3-0.8,0.3S182.4,471.2,182.8,471z   M257.5,471.6c0.5-0.2,1-0.2,1.2,0.1c0.2,0.2-0.2,0.4-0.8,0.3C257.2,472,257,471.9,257.5,471.6L257.5,471.6z M231.6,471.7  c0.4-0.2,1.1-0.2,1.6,0c0.4,0.2,0.1,0.3-0.8,0.3S231.1,471.8,231.6,471.7z M401.1,473.6c0.4-0.2,1.1-0.2,1.6,0  c0.4,0.2,0.1,0.3-0.8,0.3C401,473.9,400.7,473.7,401.1,473.6z M175.1,433.5c0.2-0.3,0.1-0.7-0.2-0.9c-0.3-0.2-0.5,0.1-0.5,0.6  C174.4,434.3,174.6,434.4,175.1,433.5z M229.6,466c-0.2-0.2-0.8-0.2-1.2-0.1c-0.5,0.2-0.4,0.4,0.4,0.4  C229.5,466.4,229.9,466.2,229.6,466L229.6,466z M232.2,466.6c-0.2-0.2-0.8-0.2-1.2-0.1c-0.5,0.2-0.4,0.4,0.4,0.4  C232,467,232.4,466.8,232.2,466.6L232.2,466.6z M241.8,467.7c0-0.3-0.1-0.6-0.3-0.6s-0.5,0.3-0.7,0.6c-0.2,0.3-0.1,0.6,0.3,0.6  C241.5,468.3,241.8,468,241.8,467.7z M252.6,472.6c-3.3-1-8.4-2.6-11.3-3.4c-5.2-1.4-7.8-2.6-4.4-2c0.9,0.2,1.6,0.1,1.4-0.2  c-0.3-0.4-5.3-0.5-5.3-0.1c0,0.3,4.5,2.4,7,3.1l2.8,0.9l-2.5-0.4c-1.4-0.2-3.4-0.7-4.4-1.2s-3.2-1-4.7-1.2c-1.6-0.2-3.6-0.6-4.4-0.7  c-1.2-0.3-1.4-0.2-0.7,0.3c0.8,0.5,5.3,1.5,7.9,1.6c0.3,0,0.7,0.4,0.8,0.8c0.2,0.5-0.5,0.6-2.2,0.4c-1.3-0.2-3.3-0.4-4.5-0.4  c-1.1,0-2.1-0.3-2.1-0.7c0-0.4-0.2-0.4-0.6,0c-0.4,0.4-4.1,0.4-9.6,0.1c-5-0.3-16.3-0.4-25.2-0.4c-27.7,0.2-36.8-0.1-36.4-1.1  c0.3-0.8-1.1-1.1-4.4-1.1c-0.4,0-0.6-0.5-0.4-1.2c0.2-0.7,0-1.2-0.4-1.2c-1.5,0-0.5-1.4,5.4-8c5.4-6.1,8.3-9.6,12.6-15.3  c3.2-4.3,5.9-7.1,6.2-6.2c0.2,0.5,0.2,0.2,0.1-0.5c-0.2-1.4,1.8-3.7,2.5-3c0.2,0.2,0.3,0,0.1-0.6s-0.1-1.2,0.3-1.4  c0.6-0.4,1,0.5,0.7,1.9c-0.1,0.3,1-0.5,2.5-1.9c1.4-1.4,2.6-2.8,2.6-3.2c0-0.4,0.7-1,1.5-1.4s3.3-3.1,5.5-6.1s4.4-5.5,4.8-5.7  c0.9-0.4-1.2,3.5-3.5,6.5c-0.9,1.2-2.2,3.2-2.9,4.5c-1.5,2.8-7.2,11.3-13,19.2c-2.3,3.1-4.6,6.3-5.1,7s-2.7,3.7-4.9,6.5l-4,5.1  l3-0.5c4.9-0.8,47.9-0.5,54.6,0.4c3.3,0.4,10.2,1.6,15.3,2.7c7.3,1.5,9.3,2.2,9.4,3c0,0.7,0.2,0.7,0.4,0.2c0.2-0.4,0.8-0.8,1.4-0.8  c0.9,0,0.9,0.1,0.1,0.6c-0.5,0.3-0.7,0.8-0.5,1.1c0.3,0.3,0.8,0.1,1.2-0.3s1.1-0.7,1.4-0.7c0.4,0,0.2,0.3-0.3,0.6  c-0.8,0.6-0.8,0.7,0,1.2c0.5,0.3,1.3,0.5,1.8,0.3s0.7-0.1,0.5,0.2c-0.2,0.3,1.2,0.9,3,1.4c3.2,0.8,9,3.1,7.7,3.1  C258.9,474.5,255.9,473.6,252.6,472.6z M244,474c-1-0.4-1.1-0.6-0.2-0.6c0.6,0,1.2,0.2,1.5,0.6C245.8,474.7,245.7,474.7,244,474z   M380.2,483.2c1.5-0.5,4.8-1,7.3-1.2c4.3-0.3,4.2-0.3-2.1,0.9C377.7,484.3,376.5,484.3,380.2,483.2z M374.1,484.7  c0.5-0.3,1.4-0.6,1.9-0.6c0.8,0,0.8,0.1,0,0.6c-0.5,0.3-1.4,0.6-1.9,0.6C373.2,485.3,373.2,485.3,374.1,484.7z M385.4,484.7  c4-1,7.4-1.7,7.7-1.5c0.2,0.1,0.3-0.4,0.2-1.2c-0.1-0.8-0.1-1.1,0.1-0.6c0.2,0.4,0.8,0.8,1.4,0.7c0.9,0,0.9-0.1,0.1-0.4  c-1.7-0.7,5.8-2,17.4-3c9.2-0.8,17.5-1,43.3-0.7c35.9,0.3,46.5,1.1,35.3,2.6c-3.1,0.4-3.8,1.1-1.9,2.1c3.1,1.8-2.6,2-19.1,0.8  c-15.2-1.1-40.4-1.4-53.8-0.7c-13.2,0.7-28.4,2.2-33.2,3.2C376.9,487.2,378.5,486.4,385.4,484.7z M336.1,486.4  c2.1-2.7,19-15.2,19-14c0,0.2-2.2,1.8-4.9,3.6c-5.1,3.4-9.1,6.5-12.8,9.7C336.2,486.7,335.6,487.1,336.1,486.4z M246.3,485.9  c-12.2-2.1-22.9-3.2-39.5-3.8c-16.6-0.6-18-0.6-48.4,1.7c-8.3,0.6-14.4,0.8-15.7,0.5l-2.1-0.5l1.2-1.6l1.3-1.6l-2.9-0.1  c-1.6-0.1-3.2-0.4-3.5-0.7c-0.6-0.6,6.4-1.4,15.3-1.6c3.3-0.1,12.1-0.5,19.6-1c26-1.5,57.7,1,76.5,6.1c3.3,0.9,6.4,1.7,6.9,1.8  c0.5,0.1,1,0.5,1.2,1c0.2,0.7,0.1,0.7-0.4,0s-0.7-0.7-1,0.2C254.5,487.4,254.9,487.4,246.3,485.9L246.3,485.9z M257.3,487.9  c-0.8-0.4-0.9-0.6-0.3-0.6c0.5,0,1.4,0.2,1.9,0.6C260.1,488.6,259.1,488.6,257.3,487.9z M455.5,492.5c0.5-0.2,1-0.2,1.2,0.1  c0.2,0.2-0.2,0.4-0.8,0.3C455.2,492.9,455,492.7,455.5,492.5L455.5,492.5z M201.3,492.8c0-0.3,1.1-0.5,2.5-0.5s2.5,0.1,2.5,0.2  s-1.1,0.4-2.5,0.5C202.5,493.2,201.3,493.1,201.3,492.8z M430.5,493.5c-0.6-0.2,3.7-0.4,9.7-0.4c5.9,0,10.5,0.1,10.1,0.2  C449.1,493.8,431.6,493.9,430.5,493.5z M404.9,494.2c1-1.1,22.9-1.7,22.9-0.6c0,0.4-2.8,0.7-7.8,0.7c-4.3,0-9.6,0.2-11.9,0.4  C404.7,495,404.2,494.9,404.9,494.2L404.9,494.2z M401.9,494.5c0-0.5,0.4-0.9,0.9-0.9s0.9,0.3,0.9,0.6c0,0.3-0.4,0.7-0.9,0.9  S401.9,495.1,401.9,494.5z M398.1,494.9c0-0.3,0.7-0.6,1.6-0.6s1.6,0.3,1.6,0.6c0,0.3-0.7,0.6-1.6,0.6  C398.8,495.5,398.1,495.2,398.1,494.9z M396.4,495.2c0-0.5,0.2-0.9,0.5-0.9s0.5,0.4,0.5,0.9s-0.2,0.9-0.5,0.9  S396.4,495.7,396.4,495.2z M394.3,495.5c0-0.3,0.3-0.8,0.6-1c0.3-0.2,0.6,0.1,0.6,0.6s-0.3,1-0.6,1  C394.6,496.1,394.3,495.9,394.3,495.5z M358.9,495.5c0-0.3,0.3-0.8,0.6-1c0.4-0.2,0.5,0,0.2,0.6  C359.3,496.2,358.9,496.4,358.9,495.5z M391.8,495.8c0-0.5,0.5-0.9,1-0.9c0.8,0,0.9,0.2,0.2,0.9c-0.4,0.5-0.9,0.9-1,0.9  C391.9,496.8,391.8,496.3,391.8,495.8z M347.5,498.7c0.5-0.3,1.2-0.6,1.6-0.6c0.3,0,0.2,0.3-0.3,0.6c-0.5,0.3-1.2,0.6-1.6,0.6  S347,499,347.5,498.7z M130.4,522.9c0.5-0.2,1-0.2,1.2,0.1c0.2,0.2-0.2,0.4-0.8,0.3C130,523.3,129.9,523.1,130.4,522.9L130.4,522.9z   M208.3,523.3l-7.9-0.3l8.2-0.2c13.1-0.3,42.2-0.2,42.6,0.2C251.6,523.4,217.5,523.7,208.3,523.3z M166.9,523.4  c-1.4-0.2,5.5-0.5,15.3-0.6s17.9,0.1,17.9,0.3C200.1,523.8,170.4,524,166.9,523.4z M149.5,523.3L139,523l11.5-0.1  c7.4-0.1,11.5,0.1,11.5,0.5c0,0.3-0.5,0.6-1.1,0.5C160.4,523.8,155.2,523.5,149.5,523.3z M454.9,524.2c0.5-0.2,1-0.2,1.2,0.1  c0.2,0.2-0.2,0.4-0.8,0.3C454.6,524.5,454.4,524.4,454.9,524.2L454.9,524.2z M434.8,523.8c0-0.2,1.6-0.4,3.5-0.4s3.4,0.2,3.3,0.3  C441.1,524.2,434.8,524.3,434.8,523.8z M404.9,450.8c-0.2-0.2-0.8-0.2-1.2-0.1c-0.5,0.2-0.4,0.4,0.4,0.4  C404.7,451.2,405.1,451,404.9,450.8L404.9,450.8z M414.5,450.3c0-0.1-0.7-0.1-1.6,0.1s-1.4,0.6-1.2,0.9  C412,451.8,414.5,450.9,414.5,450.3L414.5,450.3z M215.1,502.6c-0.6-0.2-1.6-0.2-2.2,0c-0.6,0.2-0.1,0.3,1.1,0.3  C215.2,502.9,215.7,502.8,215.1,502.6z M206.7,502.9c1.9,0.2,2.3,0.1,1.8-0.4c-1-1-6.1-0.5-6.4,0.5c-0.2,0.6,0,0.7,0.9,0.2  C203.7,502.9,205.3,502.7,206.7,502.9z M200.7,503.1c0-0.3-0.3-0.6-0.7-0.6s-0.5,0.3-0.3,0.6c0.2,0.3,0.5,0.6,0.7,0.6  C200.6,503.7,200.7,503.4,200.7,503.1z M198.3,502.6c-0.5-0.2-1.1,0-1.5,0.4c-0.5,0.5-0.2,0.6,0.8,0.3  C198.5,503,198.7,502.7,198.3,502.6z M195,503.1c0-0.3-0.8-0.6-1.7-0.6c-1.5,0-1.6,0.1-0.5,0.6C194.5,503.8,195,503.8,195,503.1z   M189.8,502.7c-0.1-0.1-1.1,0-2.3,0.2c-1.4,0.2-1.8,0.5-1.3,0.8C186.9,504.1,190.3,503.2,189.8,502.7z M238.4,504.3  c0.2-0.3-0.1-0.6-0.6-0.6s-1,0.3-1,0.6c0,0.3,0.3,0.6,0.6,0.6C237.7,505,238.1,504.7,238.4,504.3z M374.6,506.3  c3.4-0.7,8.6-1.4,11.5-1.6c3-0.2,6.7-0.5,8.2-0.7c1.6-0.1,6-0.6,9.8-0.9c3.8-0.4,14.1-0.7,22.8-0.7c8.7,0,17.4-0.3,19.3-0.5l3.5-0.4  l-5.9-0.5c-6.5-0.5-41.1-0.6-41.9-0.1c-0.7,0.4-3.7,0.9-8.9,1.3c-4.1,0.4-6.6,0.7-6.6,0.9c0,0.1-1.1,0.2-2.4,0.4  c-4.2,0.5-17,3.4-18.1,4.1c-0.8,0.5-0.6,0.6,0.8,0.3C367.6,507.6,371.2,506.9,374.6,506.3z M266.9,507.4c-1.6-1-19-3.7-22.9-3.6  c-2.1,0,0.5,0.6,7.3,1.5c5.7,0.8,11.6,1.7,13,2.1C267.7,508.2,268.3,508.2,266.9,507.4z M293.7,508.5c0-0.5-6.5-4.2-6.7-4  c-0.2,0.1,1.2,1.1,3.1,2.2C293.7,508.9,293.7,508.9,293.7,508.5z M296.9,509.2c0-0.1-0.8-0.7-1.7-1.3l-1.7-1.1l1.5,1.3  C296.3,509.4,296.9,509.7,296.9,509.2z M261,509c-0.4-0.2-1.3-0.2-1.9,0s-0.3,0.3,0.8,0.3C260.9,509.3,261.4,509.2,261,509L261,509z   M141.7,509.7c-1-0.7-7.4-0.5-7.4,0.3c0,0.3,1.9,0.4,4.1,0.4C141.3,510.4,142.3,510.2,141.7,509.7z M131.4,510.7  c1.1-0.5,1.1-0.5-0.3-0.5c-0.9,0-2.4,0.2-3.5,0.5l-1.9,0.5h2.2C129.2,511.2,130.7,511,131.4,510.7z M110.6,515.1  c0.7-1.1-0.1-1.3-1-0.3c-0.5,0.6-0.5,1-0.1,1C109.9,515.7,110.4,515.4,110.6,515.1z M324.1,532.5c4.9-1,10.4-3.1,10.3-3.8  s-8.5-5.4-14.8-8.2l-4.8-2.2l-4.4,2.7c-2.4,1.5-6.9,3.9-10.1,5.3l-5.7,2.7l2.1,1.1c3.3,1.7,8.2,3,13.3,3.5  C315.3,533.9,317.7,533.8,324.1,532.5z M327.4,543.3c2.6-0.5,6.9-1.8,9.5-2.9c6.2-2.6,11.6-8,13.3-13.5c1.4-4.3,0.9-5.3-0.8-1.9  c-3.2,6.2-13.2,13.5-21.4,15.7c-5,1.3-18.5,1.9-23.4,1c-8.2-1.5-19.4-9.3-23.5-16.4c-2-3.4-2.7-2.5-1.2,1.4  c3.4,8.9,12,15.1,23.4,16.8C309.1,544.4,322.5,544.2,327.4,543.3z M299.5,545.5c-11.7-3.2-18.9-8.8-22-17.3l-1.8-4.8l-22.9-0.3  l9.8-0.3c7.7-0.3,9.2-0.5,6.9-0.8c-1.6-0.3-3.7-0.3-4.5-0.1c-0.9,0.2-10.9,0.1-22.4-0.3c-11.4-0.4-28.8-0.7-38.7-0.8  c-9.8-0.1-17.5-0.3-17.1-0.6c0.8-0.5,30-0.9,59.3-0.8c20.8,0,10.4-0.7-17.8-1.3c-27.1-0.5-45.5,0-45.5,1.3c0,0.5-0.3,0.9-0.6,0.9  s-0.6-0.3-0.6-0.6s-1-0.6-2.2-0.6s-2.1,0.3-1.9,0.6c0.2,0.3-1.4,0.6-3.9,0.5c-2.4,0-8.3,0.1-13.1,0.4c-4.9,0.3-11.4,0.6-14.4,0.7  c-3.1,0.1-5.8,0.4-6,0.5c-0.9,0.5-24.8,1.1-27.6,0.7c-2.1-0.3-2.9-0.7-2.9-1.5c0-0.6-0.4-1.6-0.9-2.3c-0.7-1-0.8-2-0.3-4.4  c0.3-1.7,0.9-3.4,1.2-3.8c0.4-0.4,2.3-0.7,4.3-0.8c2-0.1,6.5-0.3,9.9-0.5c11.1-0.7,36.1-1.4,53.5-1.6c19-0.2,18.4-0.2,26.7,0.1  c3.4,0.1,6.2,0,6.2-0.3s0.5-0.4,1.1-0.2c0.6,0.2,5.8,0.4,11.5,0.4c5.7,0.1,13,0.3,16.1,0.6c9.8,0.9,19.3,1.2,16.8,0.6  c-3.4-0.9-24.9-3-31.6-3.1c-3.3-0.1-6.2-0.2-6.5-0.4c-1-0.6-39.6-0.2-56.5,0.5c-19.3,0.9-34.1,1-34.9,0.3c-0.3-0.3,0.3-1.3,1.2-2.2  c2-2.1,2.1-2.6,0.6-3.6c-0.9-0.7-0.5-0.8,2.6-1.2c2.6-0.3,3.8-0.2,4.1,0.3c0.4,0.6,0.8,0.6,2-0.1c2-1.1,1.6-1.1,44.8-1.4  c29.2-0.2,40.4-0.1,47.2,0.6c20.8,2,31.8,4.2,47.2,9.4c4.4,1.5,8.1,2.6,8.1,2.5c0-0.5-7.7-3.7-16.7-7.1c-12.3-4.6-26.8-7.5-43.3-8.6  c-3.6-0.2-7.3-0.5-8.2-0.6s-3.2-0.2-5-0.2c-5.9-0.2-3-1.4,3.2-1.3c24.6,0.1,51.7,6,71.6,15.4c4.7,2.2,9.5,4.7,10.6,5.5  s1.8,1.1,1.5,0.7c-0.7-1.1-17.9-11.1-22.2-12.9c-7.1-2.9-15.1-5.4-18.2-5.5c-0.6,0-1.1-0.5-1.1-1.2c0-0.8-0.1-0.9-0.5-0.3  c-0.3,0.5-1.2,0.7-2.4,0.5c-6.9-1.3-17.4-2.9-22.7-3.4c-7.5-0.7-35.2-0.4-42.4,0.5c-2.8,0.3-8.5,0.8-12.7,1s-9.3,0.5-11.4,0.6  c-2.1,0.1-6.2,0.5-9.2,0.9s-9.1,0.8-13.7,1.1c-8.8,0.4-10.3,0-8.2-2.2c1.2-1.4,1.3-2.9,0.2-2.4c-0.5,0.2-1.2,0.1-1.7-0.2  c-0.6-0.4-0.2-0.6,1.3-0.7c1.2-0.1,3.1-0.2,4.1-0.3c1-0.1,4.3-0.5,7.3-0.8c8.4-0.9,36.1-2,52.5-2c15,0,31,1.1,40.8,2.9  c12,2.2,16.1,3,15.9,3.4c-0.1,0.2,0.8,0.4,2.1,0.5c3.8,0.2,27,8.1,35.5,12.1c1.2,0.6,2.6,1.1,3,1.2c0.5,0.1,1.9,0.7,3.3,1.4  c1.4,0.7,2.5,1.1,2.5,1c0-0.4-7.1-5.4-10.8-7.6c-4.6-2.7-5-3.4-0.7-1.2c3.8,1.9,4.7,2,2.6,0.2c-1.6-1.3-1.6-1.3,0.8,0  c5.6,3.2,7.3,4.2,10,6.3l2.8,2.3l-3.9-4.7c-4.6-5.7-7.7-8.6-14.5-13.6c-5.2-3.9-16.3-10.7-22.6-14c-4.9-2.5-3.6-2.7,1.7-0.2  c2.3,1.1,4.4,1.9,4.6,1.7c0.2-0.2-2.1-1.5-5.1-3c-3-1.4-5.4-2.7-5.4-2.8c0-0.4,5.5,1.8,11.6,4.7c9.4,4.3,27.2,17.2,33.7,24.3  l3.6,3.9l-1.8-3.2c-5.7-10.1-11.5-17-19.6-23c-5.8-4.4-7.9-5.6-17.7-10.8c-13.2-7-27.8-11.3-45.9-13.5c-12-1.4-28.4-2.6-33.1-2.4  c-1.4,0.1-1.7-0.1-1.4-1.1s0.1-1.1-1.4-0.8c-1,0.2-2.7,1-3.8,1.8s-2.1,1.3-2.1,0.9c0-0.3,0.8-1.2,1.7-1.8c1.7-1.2,1.6-2.9-0.1-2.3  c-0.5,0.2-0.9,0.1-0.9-0.2c0-0.9,3.4-4.1,4.3-4.1c0.5,0,0.7-0.3,0.5-0.6c-0.5-0.8,11-14.9,18-22.1c5.8-5.9,5.5-4.9-1.2,4.7  c-3.5,5.1-2.6,5.5,1.2,0.6c6-7.7,9.2-11.3,8.3-9.4c-1,2.1-14.7,22.7-16.1,24.2l-1.3,1.4h5.6c6.9,0,11.6,0.4,21.5,1.6  c29.6,3.7,52.5,13.8,72,31.7c6.3,5.8,14.4,15.3,16.2,19c1,2.1,1,2.1,1.6,0.7c0.3-0.8,0.8-6.4,1.1-12.5c0.6-11.4,1.7-22,2.4-23.1  c0.8-1.3,1.4,4.4,2.1,20.1c0.4,8.9,1,16.1,1.3,15.9s1.1-1.4,1.7-2.7c1.2-2.4,6.7-9.2,12-15c13.2-14.4,35.7-26.1,63.2-32.9  c7.8-2,23.9-4.1,31.9-4.3c3.4-0.1,6.2-0.2,6.2-0.3c0-0.1-1.7-2.4-3.7-5.1c-4.7-6.2-15.1-22.3-14.4-22.3c0.2,0,1.3,1.4,2.6,3.1  c1.2,1.7,3.6,4.7,5.4,6.6c1.7,1.9,3.4,4,3.8,4.6s0.8,1,1,0.8s-1.2-2.7-3.2-5.6c-1.9-2.9-3.4-5.4-3.2-5.5c0.2-0.2,3.9,3.8,8.4,8.8  s10.1,11.1,12.5,13.5c2.4,2.5,4.7,5.1,5.1,5.8c0.4,0.7,1.5,2.6,2.4,4.2l1.7,2.9l-2.6-2.2c-1.6-1.4-3.2-2.2-4.1-2.1  c-0.8,0.1-1.5,0.3-1.5,0.6c0,0.2-0.6,0.5-1.4,0.5s-3,0.2-4.9,0.3c-1.9,0.1-7.7,0.6-12.8,0.9c-9.2,0.7-19.4,2-25,3.2  c-1.6,0.4-3,0.5-3.1,0.4c-0.3-0.3,7.6-2.6,11.1-3.3c1.2-0.2,2-0.6,1.8-0.8c-0.5-0.5-12.4,1.9-12.4,2.5c0,0.3-0.3,0.3-0.6,0.1  c-0.3-0.2-2.8,0.2-5.5,1s-5.2,1.4-5.5,1.5c-0.4,0.1-1.1,0.3-1.6,0.5s-2.4,0.9-4.1,1.4c-2.9,0.9-12.2,5.1-17.2,7.7  c-1.1,0.6-2.2,0.9-2.4,0.7s3.4-2.2,8-4.5c7.8-3.8,27.1-10.6,30.3-10.6c0.7,0,1.2-0.2,1.2-0.5c0-1.2-15.8,2.6-25.4,6  c-14.9,5.3-32,15.9-39.5,24.3c-4.4,4.9-5.1,6.1-2.2,3.4c7.4-6.7,13.9-11.4,21.6-15.7c4.7-2.6,4.9-2.6,4.9-1.5c0,0.4-1.2,1.2-2.7,1.6  c-3.3,1-10.9,5.7-15.6,9.6c-3.7,3.1-10.8,10-10.8,10.6c0,0.2,0.9-0.4,2.1-1.2l2.1-1.4l-1.7,2.1c-1,1.2-1.7,2.4-1.7,2.7  s-0.4,0.6-0.8,0.6c-0.8,0-1.4,0.9-5.1,7.6l-1.9,3.5l5.6-5.7c18.2-18.6,41.9-30,72.4-34.8c5.3-0.8,13-1.1,38.4-1.4l31.8-0.3l-2.5-2.7  c-1.4-1.5-3-3.5-3.6-4.5s-2.2-3-3.4-4.4c-1.2-1.4-1.7-2-0.9-1.4c2.7,2.2,3,1,0.4-1.6c-1.5-1.5-2.7-2.9-2.7-3.2c0-0.9,1-0.4,2.7,1.2  c1,0.9,1.7,1.3,1.7,1c0-1.1-1.4-3.9-2-3.9c-0.3,0-0.4,0.3-0.2,0.6c0.2,0.3,0.1,0.6-0.3,0.6s-0.7-0.3-0.7-0.6s-0.4-0.5-0.9-0.3  s-1.1-0.2-1.3-1c-0.2-0.7-2.2-3.4-4.4-6c-2.2-2.6-4.6-5.6-5.5-6.8c-0.8-1.2-1.8-2.4-2.2-2.8c-0.9-0.8-7.9-10.1-9.5-12.7  c-0.6-1,0.7,0.1,2.9,2.5c8,8.6,9.2,9.7,10.4,9.9c0.8,0.1,1.3,0.8,1.5,1.7c0.2,1.2,0.3,1.3,0.8,0.6c0.5-0.7,0.7-0.7,1.4,0.3  c0.9,1.5,5.5,6.9,8.4,10c1.2,1.3,2.2,2.6,2.2,2.9s0.7,1.3,1.7,2.1c0.9,0.8,3.5,4,5.8,6.9c2.3,3,4.5,5.6,5,5.9  c0.4,0.3,0.8,0.9,0.8,1.4s0.7,1.2,1.5,1.6c1.8,0.8,3,2.7,3.3,4.9c0.1,0.9,0.5,1.7,0.9,1.9c1.5,0.5,0.6,1.5-1.1,1.3  c-1.5-0.2-1.8-0.1-1.5,0.7c0.3,0.8,0.2,0.8-0.5,0.3c-0.5-0.4-1.8-0.6-2.8-0.6c-1,0.1-2.3-0.2-2.8-0.6c-0.7-0.5-0.8-0.5-0.4,0.2  s0.2,0.8-0.9,0.4c-1-0.3-1.3-0.2-1,0.3c0.3,0.4,1,0.6,1.7,0.4c0.8-0.2,1.1,0,1,0.4c-0.2,0.5-4.3,0.8-14.4,0.9  c-7.8,0.1-18.2,0.4-23,0.7c-4.9,0.3-12,0.6-15.8,0.6c-6.8,0-16.8,1.1-17.4,1.8c-0.2,0.2,1.1,0.2,2.8-0.1c1.7-0.2,5.6-0.5,8.5-0.7  c5.3-0.3,5.2-0.3-1.9,0.6c-4,0.5-8.3,0.8-9.5,0.6c-2.8-0.4-19.2,2.8-26.5,5.1c-5.9,1.9-15.8,5.6-18.6,7.1c-3.3,1.7-2.5,0.4,1-1.6  c7.1-4.1,18-7.9,34-12.2c3.5-0.9,4-1,7.8-1.6c1.7-0.2,3-0.6,3-0.9c0-0.6-17.5,2.1-22.5,3.5c-14.9,4-30.9,12.3-41.8,21.7  c-1.8,1.5-5.7,5.5-8.8,8.8l-5.5,6l5.6-4.1c3.1-2.3,5.9-4.1,6.3-4.1s1-0.4,1.2-0.8s0.2-0.1,0,0.6c-0.4,1.7,0.1,1.8,3,0.3  c2.3-1.2,4.2-1.7,3.3-0.9c-0.3,0.3-2.8,1.7-5.6,3.2c-2.8,1.5-5.3,2.9-5.6,3.2c-0.8,0.7,5.5-1.6,9.4-3.5c5.8-2.8,28.7-9.4,37.6-10.8  c1.2-0.2,3.7-0.7,5.5-1.2c2.4-0.6,3.3-0.7,3.3-0.1s0.1,0.6,0.5,0c0.3-0.4,1.5-0.9,2.7-1.1c19.7-3,27.9-3.3,59-2.4  c35.4,1,36.5,1.1,36.5,2.4c0,0.9,0.1,0.9,0.8-0.1c0.7-1,1.3-1,5.1-0.5c5,0.7,5.8,1.2,3.1,1.7c-2.1,0.4-3.1,1.9-2.1,3.1  c1.7,2-1.2,2-21.7,0.1c-8.3-0.8-14.9-1.6-14.7-1.8c0.2-0.2-4.6-0.6-10.7-0.9l-11.1-0.5l-0.1-2c-0.1-1.9-0.1-1.9-0.4-0.2  c-0.3,1.7-0.4,1.7-4.3,1.7c-3.4,0-4.1-0.2-4.1-1.1c0-0.7-0.2-0.8-0.4-0.3c-0.2,0.6-2.1,0.8-6.4,0.8c-8.7,0-27,1.7-34.8,3.2  c-7.3,1.4-17.3,3.7-19.3,4.4c-0.7,0.3-4.3,1.4-7.9,2.5c-7.1,2.2-17.1,6.9-22.9,10.9c-4.7,3.2-5.4,4.4-0.9,1.5  c5.1-3.3,12.5-6.9,18.7-9c6.7-2.4,25.1-6.7,26.7-6.3c0.6,0.2,1.2,0,1.2-0.4s1-0.5,2.5-0.3c1.4,0.2,2.4,0.1,2.2-0.2  c-0.2-0.3,0.5-0.6,1.6-0.6c1.3,0,1.9,0.3,1.9,1c0,0.8-0.3,0.8-1.2,0.3c-0.7-0.4-1.3-0.4-1.4-0.1s-1.2,0.8-2.4,1  c-3.8,0.6-16,3.6-18.3,4.5c-1.2,0.5-5.5,2-9.6,3.5c-4.1,1.4-7.9,3-8.5,3.5s0.7,0.2,3-0.7c9.4-3.6,27.2-7.8,39.2-9.1  c17.4-2,58.6-2.4,91.3-1.1c11.8,0.5,13.8,0.7,13.8,1.6c0,0.8,0.1,0.8,0.8-0.1c0.6-0.9,1.3-1,3.5-0.7c3.1,0.5,3.2,0.8,1.3,2.4  l-1.4,1.2l1.4,0.9c2.1,1.4,1.7,2.6-1,3.1c-2.3,0.4-22.6-0.1-26.4-0.7c-3.6-0.5-41.1-1.6-56.5-1.5c-11.7,0-17.5,0.3-24.4,1.3  c-11.8,1.6-14.2,2.1-13.4,2.6c0.4,0.2,1.7,0.2,2.8-0.2c1.2-0.3,3.2-0.6,4.4-0.5s2.5-0.1,2.9-0.3c0.8-0.5,4.8-0.5,25.5-0.5  c8.5,0,15.7-0.2,16-0.5s1.4-0.2,2.6,0.2c1.4,0.6,6.2,0.8,16.5,0.9c14.8,0.1,51.4,1.1,61,1.7c6,0.4,8.3,1.4,8.3,3.7  c0,0.8,0.3,2.2,0.6,3.1c0.4,1.2,0.4,1.8-0.4,2.4c-0.7,0.6-0.9,1.4-0.6,2.7l0.4,1.9l-13.1-0.5c-20.6-0.8-39.7-1-72.9-0.9  c-16.9,0-31.4,0.1-32.3,0c-0.9,0-3.6,0-6,0s-12.6,0-22.5,0c-10-0.1-18.8,0.1-19.6,0.4c-1.3,0.5,26.3,1.5,33.6,1.2  c1.2,0,11.9,0,23.7,0.2l21.5,0.2l-14.5,1c-7.8,0.2-25.5,0.5-39.4,0.5l-25.1,0.1l-2.2,4.7c-3.7,7.9-9.4,12.4-20.3,15.6  C325.3,546.9,306,547.3,299.5,545.5L299.5,545.5z" name="Layer %{number}" zoom="1" data-layer-id="0479122701393" style="fill: rgb(0, 34, 102); fill-opacity: 1;"></path><path class="st2" d="M263.7,134.2c5.1,5.5,6.9,11.7,5.5,18.8c-0.4,2-0.8,4.3-0.9,5.1c-0.1,0.8-0.3,1.5-0.5,1.7  c-0.2,0.2-1.9-1.5-3.8-3.8c-6.1-7.1-7-10.3-5.6-18.8c0.5-2.9,0.8-5.4,0.7-5.7C258.7,130,261.1,131.4,263.7,134.2z M313.8,165.2  c0.7,0,3.9-4.7,5.8-8.4c2.5-4.8,3.3-8.7,3.2-15.6c0-5.5-1-13.7-1.7-14.5c-0.1-0.2-1.6,1.1-3.3,2.8s-4.2,4-5.5,5  c-6,4.7-11.3,13.4-11.2,18.5c0,1.2-0.2,2.1-0.5,2.1c-0.2,0-0.4,2.1-0.3,4.6c0.2,4.8,1.7,11,3.4,13.9c1,1.8,2,2.3,1.9,1.1  c0-0.3,0.4-0.6,0.9-0.6c1.1,0,6.7-6.7,6.7-8C313.2,165.6,313.5,165.2,313.8,165.2z M419.8,155.5c0.9-1.7,1.5-3.5,1.3-3.9  c-0.2-0.5-1.6-0.8-4.2-0.8c-14.2,0-23.8,5.3-29.5,16.4c-2.7,5.1-3.1,6-3.5,7.8l-0.4,1.9l2.7-1.9c1.8-1.3,4.4-2.3,7.8-3  C409.9,168.7,414.8,165.5,419.8,155.5z M254.1,159.6c-1.8-1.6-4.5-3.6-5.9-4.4l-2.6-1.5v3.7c0,7.7,3.1,14.1,8.6,18.1  c1.6,1.2,3.7,2.7,4.6,3.5c0.9,0.8,1.7,1.4,1.7,1.4c0,0-0.1-2.2-0.2-4.9C259.9,168,258,163.2,254.1,159.6z M356.2,145.8  c-0.8,0.9-3.3,3.1-5.6,4.9c-4.4,3.5-7.3,6.9-9.1,11.1c-1.2,2.6-1.7,11.4-1.1,18.9c0.2,3.6,0.3,3.7,1.2,2.5c0.6-0.8,1.5-1.6,2.1-1.9  c0.6-0.3,3.4-3.1,6.3-6.2c6.6-7.1,8.8-11.4,9-17.7c0.1-4.6-0.5-12.3-1.1-12.9C357.8,144.3,357,144.9,356.2,145.8z M296.7,185.2  c-0.3,0.1-0.5,0-0.5-0.4c0-0.9,0.9-0.8,1.8,0.1c1.4,1.4,1.5,0.1,0.5-5.5c-1.8-10-3.5-14.5-7.2-18.4c-1.9-2-6.4-4.6-7.9-4.6  c-1.3,0-0.3,14.7,1.3,18.4c1.6,3.7,7.3,9.2,11.7,11.4c1.8,0.9,3.5,1.5,3.6,1.3C300.5,187.1,297.3,184.9,296.7,185.2z M315.1,184.5  c-1,1.8-1.5,4.1-1.7,7.8c-0.2,4.9-0.1,5.5,1.8,9.4c1.1,2.3,2.5,4.3,3,4.5s1.2,1,1.5,1.9c0.8,2.1,0.9,1.9,2-2.7  c0.6-2.1,1.6-5.9,2.3-8.4s1.3-5.5,1.3-6.6c0-1.9-3.1-12.1-4-13C320.8,176.9,316.7,181.5,315.1,184.5z M439.3,212.1l1.7-1.5  c0.9-0.8,3.1-2.5,4.9-3.8c4.4-3.2,8.8-8,10.3-11.3c1.1-2.6,2.6-14.5,1.8-14.5c-0.1,0-2.9,1.3-6,2.9c-6.1,3.1-8.5,5.4-10.9,10.4  c-1.6,3.3-2.5,9.7-2,14.5L439.3,212.1z M181.1,209.2c0.3-0.2,0.6,0.1,0.6,0.6s0.6,1.4,1.4,1.9c1.9,1.3,2.7,1.3,2-0.1  c-0.2-0.6-0.6-5.4-0.9-10.6c-0.7-12.2-2.1-16.5-7.5-22.3c-1.7-1.9-7.4-5.9-8.3-5.9c-0.4,0-0.9,9.3-0.9,16.4c0,3.8,0.4,5.5,1.7,8.4  C171.8,203.3,179.1,210.4,181.1,209.2z M421.6,214.4c0.6,1.1,1,2.4,0.8,3c-0.3,0.6-0.1,1,0.7,1c0.6,0,1.1-0.8,1.4-2.2  c0.2-1.2,1.1-3.1,1.9-4.2c0.8-1.1,1.5-2.3,1.5-2.7c0-0.4,0.5-1.6,1-2.6c1.5-2.9,1.4-10.1-0.2-13.7c-1.6-3.5-5.3-8.7-6.2-8.7  c-0.6-0.1-1.1,0.9-3.5,7.2C416.6,197.7,417.8,208.2,421.6,214.4z M211.6,220.6c-0.8-3.1-2.2-6.9-3-8.3c-2.7-4.5-7.1-8.1-12.9-10.3  c-2.9-1.1-5.4-2-5.7-2c-0.6,0,0.4,7.3,1.5,10.6c2.8,8.3,12.1,16.7,19.4,17.6c1.1,0.1,2.1,0.4,2.3,0.6c0.9,0.9,1.4,0.2,0.7-1.1  C213.5,227,212.4,223.8,211.6,220.6z M478.6,210.3c-13.3-2.7-23.7,1.9-30.5,13.3c-1.1,1.8-2.6,4.3-3.3,5.4c-0.7,1.1-1,2-0.7,2.1  c0.3,0,3.1-0.3,6.2-0.7c6.2-0.8,14-3.1,17.4-5.2c3-1.8,9.2-7.8,10.8-10.3c0.7-1.2,1.8-2.3,2.5-2.5  C483.1,211.8,482.4,211.1,478.6,210.3z M170.6,226c-5.7-0.2-6.6-0.1-9.1,1.3c-3.3,1.8-3.8,2.8-1.9,3.4c0.8,0.3,2.4,1.4,3.7,2.5  c5,4.5,9.8,7,15.6,8.2c1.4,0.3,14.4-0.2,14.7-0.7c0.1-0.1-2.4-2.8-5.5-5.9C180.6,227.3,178.7,226.3,170.6,226z M123.9,265  c0.6,3.7,3.1,8,6.3,10.8c3,2.7,10.6,6.2,12.1,5.6c0.5-0.2,1.5-0.1,2.3,0.2c2,0.8,2.1,0.4,0.3-2.3c-0.8-1.4-2-3.9-2.6-5.6  c-2.5-7.6-7-11.7-15.7-14.3l-3.7-1.1l0.3,2.2C123.4,261.7,123.7,263.7,123.9,265z M130.6,286.2c-5.7-2.5-6.5-2.7-11.5-2.7  c-4.4,0-6,0.3-9.1,1.7c-5.2,2.4-7.7,4.8-4.9,4.8c1,0,2.6,1,9.4,5.8c1.3,0.9,4,2.1,5.9,2.6c1.9,0.5,3.7,0.9,4.1,1.1  c1.4,0.1,9-1.3,11.7-2.1c1.5-0.5,3.9-1.1,5.2-1.3C146.8,295.2,142.8,291.6,130.6,286.2z M167.1,300.1c-4.2-0.6-12.5,0-16.1,1.1  c-3.9,1.2-7.6,3.5-11.2,7.1c-3.8,3.8-4.6,5.4-2.3,4.7c2.2-0.7,5.4-0.5,8.3,0.6c1.5,0.5,4.2,1.2,5.9,1.5c5.6,0.9,12.1-0.7,17-4  c3.5-2.4,6.8-3.9,9.4-4.4c2.3-0.5,2.3-0.6,1.4-1.6C177.9,303.3,171.5,300.7,167.1,300.1z M422.8,304.2c-8.7,0.3-11.6,0.7-11.1,1.5  c0.2,0.3-0.1,0.4-0.6,0.2c-0.6-0.2-1-0.1-1,0.2c0,0.3,2.2,2,4.9,3.7s6,4.1,7.4,5.4c3,2.8,7.9,5.3,12.5,6.6c2.5,0.7,5.5,0.8,11.7,0.5  c4.5-0.2,8.8-0.4,9.6-0.4s1.4-0.2,1.4-0.4s-2.5-3.1-5.7-6.5C443.1,305.7,437.8,303.7,422.8,304.2z" name="Layer %{number}" zoom="1" data-layer-id="1188188701393" style="fill: rgb(92, 174, 80);"></path></svg>